<?xml version="1.0" encoding="UTF-8" standalone="no"?>
<svg
   viewBox="0 0 3477.3333 1554.6667"
   height="1554.6667"
   width="3477.3333"
   xml:space="preserve"
   id="svg2"
   version="1.1"
   sodipodi:docname="itf-seeklogo.svg"
   xmlns:inkscape="http://www.inkscape.org/namespaces/inkscape"
   xmlns:sodipodi="http://sodipodi.sourceforge.net/DTD/sodipodi-0.dtd"
   xmlns="http://www.w3.org/2000/svg"
   xmlns:svg="http://www.w3.org/2000/svg"
   xmlns:rdf="http://www.w3.org/1999/02/22-rdf-syntax-ns#"
   xmlns:cc="http://creativecommons.org/ns#"
   xmlns:dc="http://purl.org/dc/elements/1.1/"><sodipodi:namedview
     id="namedview1"
     pagecolor="#505050"
     bordercolor="#ffffff"
     borderopacity="1"
     inkscape:showpageshadow="0"
     inkscape:pageopacity="0"
     inkscape:pagecheckerboard="1"
     inkscape:deskcolor="#505050" /><metadata
     id="metadata8"><rdf:RDF><cc:Work
         rdf:about=""><dc:format>image/svg+xml</dc:format><dc:type
           rdf:resource="http://purl.org/dc/dcmitype/StillImage" /></cc:Work></rdf:RDF></metadata><defs
     id="defs6" /><g
     transform="matrix(1.3333333,0,0,-1.3333333,0,1554.6667)"
     id="g10"><g
       transform="scale(0.1)"
       id="g12"><g
         transform="scale(1.32385)"
         id="g14"><path
           id="path16"
           style="fill:#000000;fill-opacity:1;fill-rule:evenodd;stroke:none"
           d="m 9035.93,7739.04 2040.87,-7.42 c -16.1,-937.34 -2.3,-1884.6 -2.3,-2821.38 0,-482.26 -28.2,-859.67 122.6,-1281.08 198.4,-554.5 496.4,-867.33 887.4,-1235.37 335.1,-315.46 938.3,-612.06 1412.9,-704.68 398.3,-77.76 2319.4,-69.04 2802.6,-47.63 l -2.7,1351.64 c -667.8,20.53 -1455.4,4.92 -2140,6.3 -706.6,2.43 -1223.6,353.77 -1484,846.55 -157.7,298.52 -116.7,680.39 -116.7,1040.96 0,327.91 -31,850.35 5.9,1154.74 211.6,5.16 1410.1,-18.93 1471,17.4 58.8,61.54 720.8,1255.37 739.6,1330.92 l -2211.4,0.95 -2,1397.04 -2917.69,4.89 C 9535.5,8579.55 9060.63,7862.76 9035.93,7739.04" /></g><g
         transform="scale(1.54519)"
         id="g18"><path
           id="path20"
           style="fill:#000000;fill-opacity:1;fill-rule:evenodd;stroke:none"
           d="m 12174.2,3532.77 519.7,-0.39 3.3,-828.62 1256.1,-3.72 4.5,832.27 1420.6,0.6 4,1009.02 -1423,2.7 c -26.5,645.98 9,1088.48 572.5,1514.12 657.2,496.38 1148.9,226.07 1766.1,313.34 l 2,1138.77 c -529.3,33.72 -1427.9,26.68 -1862.5,-137.73 -958.9,-362.7 -1731.2,-1256.72 -1742,-2326.58 -1.7,-165.83 -0.4,-334.3 0.9,-500.24 1.9,-239.3 -45.7,-233.1 -141.9,-386.09 -84.8,-134.79 -370.6,-543.19 -380.3,-627.45" /></g><path
         id="path22"
         style="fill:#000000;fill-opacity:1;fill-rule:evenodd;stroke:none"
         d="m 11957.8,2170.19 1953.2,-0.59 -4.8,7825.37 -1951.9,-5.9 3.5,-7818.88" /><path
         id="path24"
         style="fill:#e53b2e;fill-opacity:1;fill-rule:evenodd;stroke:none"
         d="m 7199.32,11652.4 c -799.98,-1.5 -1264.19,-700.9 -999.38,-1491 31.39,-93.7 62.9,-155.9 85.95,-218.2 l 600.68,-1656.74 c 176.07,-499.89 571.13,-1408.12 700.54,-1863.1 56.23,-197.72 121.24,-292.68 176.32,-470.66 169.54,-547.83 457.87,-879.75 1071.86,-865.12 463.98,11.07 644.52,123.49 855.6,401.97 191.09,252.1 283.95,683.01 134.6,1044.67 -304.03,736.21 -760.21,2012.87 -1041.84,2817.98 -123.38,352.73 -605.44,1701.9 -723.33,1868.2 -152.18,214.6 -452.13,432.8 -861,432" /><path
         id="path26"
         style="fill:#015291;fill-opacity:1;fill-rule:evenodd;stroke:none"
         d="m 4797.92,11199.2 c -378.4,-61.8 -608.17,-218.7 -772.76,-538.7 -201.22,-391.1 -65.31,-704.56 66.17,-1061.07 246.24,-667.66 456.44,-1237.68 710.52,-1916.86 141.58,-378.47 904.76,-2584.52 1089.17,-2829.56 425.84,-565.88 1355.23,-507.7 1682.56,161.12 207.41,423.79 63.46,699.21 -72.8,1077.64 -448.94,1246.92 -982.3,2601.85 -1411.2,3833.84 -216.85,622.89 -465.96,1408.39 -1291.66,1273.59" /><path
         id="path28"
         style="fill:#009c3b;fill-opacity:1;fill-rule:evenodd;stroke:none"
         d="M 2657.34,10001.5 C 2027.02,9848.42 1779.41,9238.52 2027.06,8550.59 L 3276.02,5172.21 c 100.27,-304.05 198.23,-559.65 408.43,-735.74 756.3,-633.59 2019.21,55.54 1556.44,1246.46 -217.7,560.25 -409.09,1144.37 -623.88,1696.39 -228.06,586.16 -437.48,1147.73 -623.61,1686.63 -106.32,307.83 -180.19,536.95 -405.61,735.93 -230.43,203.42 -581.84,284.22 -930.45,199.62" /><path
         id="path30"
         style="fill:#000000;fill-opacity:1;fill-rule:evenodd;stroke:none"
         d="M 9401.29,5021.89 6659.85,4049.44 C 5581.52,3532.29 6172.98,1906.5 7337.18,2198.66 c 421.38,105.73 916.6,329.23 1364.84,483.07 l 1358.58,491.91 c 367.1,169.38 709,651.71 507.4,1236.38 -143.6,416.8 -638.49,749.75 -1166.71,611.87" /><path
         id="path32"
         style="fill:#fee002;fill-opacity:1;fill-rule:evenodd;stroke:none"
         d="M 734.047,8616.28 C 489.156,8541.29 324.207,8441.25 191.262,8262.13 -258.789,7655.78 202.359,6977.3 484.746,6175.25 563.457,5951.68 634.102,5743.94 723.375,5519.06 829.23,5252.39 971.258,4749.11 1138.88,4544.73 l 70.96,-81.61 c 74.86,-78.19 97.53,-75.26 189.64,-124.2 864.56,-459.38 1828.93,270.11 1390.75,1296.05 -39.59,92.68 -69.94,252.37 -110.93,359.36 l -736.54,2009.28 c -41.13,119.43 -99.42,164.27 -176.36,281.96 -74.85,114.5 -149.33,165.61 -245.5,224.02 -200.54,121.82 -533.17,184.38 -786.853,106.69" /><g
         transform="scale(1.59164)"
         id="g34"><path
           id="path36"
           style="fill:#231f20;fill-opacity:1;fill-rule:nonzero;stroke:none"
           d="m 16140,7002.88 v 181.87 h 80.6 c 16.2,0 28.6,-1.65 37,-4.91 8.4,-3.26 15.1,-9.01 20.2,-17.27 5,-8.25 7.5,-17.4 7.5,-27.39 0,-12.91 -4.2,-23.79 -12.5,-32.64 -8.4,-8.85 -21.2,-14.44 -38.7,-16.85 6.4,-3.05 11.2,-6.09 14.5,-9.06 7.1,-6.43 13.7,-14.52 19.9,-24.21 l 31.5,-49.54 h -30.1 l -24,37.85 c -7,10.97 -12.8,19.31 -17.3,25.11 -4.6,5.8 -8.7,9.82 -12.3,12.15 -3.5,2.28 -7.2,3.89 -10.9,4.82 -2.7,0.55 -7.2,0.85 -13.4,0.85 h -27.9 v -80.78 z m 24.1,101.61 h 51.7 c 11,0 19.6,1.14 25.7,3.43 6.2,2.24 10.9,5.88 14.1,10.92 3.2,5 4.8,10.41 4.8,16.3 0,8.59 -3.1,15.7 -9.3,21.25 -6.2,5.55 -16,8.3 -29.5,8.3 h -57.5 v -60.2" /></g><g
         transform="scale(1.59868)"
         id="g38"><path
           id="path40"
           style="fill:none;stroke:#231f20;stroke-width:26.5968;stroke-linecap:butt;stroke-linejoin:miter;stroke-miterlimit:22.9256;stroke-dasharray:none;stroke-opacity:1"
           d="m 16134,7222.51 c 91.7,0 166,-74.34 166,-166.04 0,-91.7 -74.3,-166.04 -166,-166.04 -91.7,0 -166.1,74.34 -166.1,166.04 0,91.7 74.4,166.04 166.1,166.04 z" /></g><g
         transform="scale(1.25959)"
         id="g42"><path
           id="path44"
           style="fill:#231f20;fill-opacity:1;fill-rule:nonzero;stroke:none"
           d="M 664.928,82.3617 V 580.548 c 0,25.917 5.89,45.209 17.671,58.169 11.778,12.957 27.095,19.435 45.799,19.435 19.143,0 34.752,-6.329 46.682,-19.14 11.927,-12.811 17.965,-32.253 17.965,-58.464 V 82.3617 C 793.045,56.1472 787.007,36.712 775.08,23.749 763.15,10.7922 747.541,4.31377 728.398,4.31377 c -18.409,0 -33.577,6.47843 -45.504,19.58413 -11.928,13.1087 -17.966,32.5439 -17.966,58.4638 z M 1103.47,581.283 1349.7,208.416 v 376.402 c 0,24.444 5.3,42.707 15.75,54.929 10.46,12.221 24.59,18.405 42.41,18.405 18.26,0 32.84,-6.038 43.45,-18.26 10.6,-12.221 15.9,-30.63 15.9,-55.074 V 87.5159 c 0,-55.5177 -22.97,-83.20213 -68.92,-83.20213 -11.49,0 -21.79,1.61883 -31.07,5.00534 -9.13,3.24079 -17.82,8.54069 -25.77,15.61149 -8.1,7.2133 -15.47,15.6083 -22.39,25.3275 -6.92,9.5703 -13.84,19.4383 -20.76,29.4521 L 1058.12,447.866 V 77.6479 c 0,-24.1522 -5.6,-42.4121 -16.79,-54.7796 -11.34,-12.3707 -25.77,-18.55453 -43.295,-18.55453 -18.115,0 -32.693,6.18383 -43.591,18.70023 -11.043,12.5165 -16.492,30.7763 -16.492,54.6339 V 565.38 c 0,20.762 2.357,36.963 6.919,48.745 5.448,12.956 14.578,23.559 27.244,31.805 12.662,8.101 26.36,12.222 40.935,12.222 11.64,0 21.5,-1.91 29.6,-5.594 8.25,-3.83 15.47,-8.836 21.65,-15.168 6.19,-6.333 12.52,-14.43 19,-24.593 6.48,-10.014 13.25,-20.468 20.17,-31.514 z m 915.09,-39.761 H 1878.81 V 82.3617 c 0,-26.5091 -5.9,-46.0932 -17.82,-58.9073 -11.78,-12.8111 -27.1,-19.14063 -45.8,-19.14063 -19,0 -34.61,6.47843 -46.54,19.43523 -11.92,12.963 -17.96,32.3982 -17.96,58.6127 V 541.522 h -139.75 c -21.95,0 -38.14,4.86 -48.75,14.433 -10.6,9.719 -16.05,22.531 -16.05,38.433 0,16.347 5.6,29.307 16.64,38.88 11.05,9.571 27.1,14.284 48.16,14.284 h 407.62 c 22.23,0 38.58,-4.859 49.48,-14.727 10.75,-9.865 16.2,-22.679 16.2,-38.437 0,-15.902 -5.6,-28.714 -16.5,-38.433 -10.89,-9.573 -27.24,-14.433 -49.18,-14.433 z m 557.97,7.068 H 2287.9 V 393.083 h 265.81 c 19.59,0 34.16,-4.419 43.73,-13.108 9.72,-8.687 14.43,-20.319 14.43,-34.604 0,-14.284 -4.71,-26.065 -14.13,-35.049 -9.57,-8.985 -24.15,-13.546 -44.03,-13.546 H 2287.9 V 116.525 h 298.5 c 20.17,0 35.34,-4.711 45.5,-13.99 10.31,-9.2788 15.46,-21.7952 15.46,-37.2578 0,-14.8734 -5.15,-27.0952 -15.46,-36.374 -10.16,-9.2757 -25.33,-13.9864 -45.5,-13.9864 h -348.13 c -27.83,0 -47.86,6.1838 -60.08,18.5545 -12.22,12.3706 -18.41,32.3951 -18.41,59.9338 V 569.061 c 0,18.409 2.8,33.428 8.25,45.064 5.45,11.632 13.99,20.173 25.62,25.473 11.64,5.303 26.51,7.954 44.62,7.954 h 338.26 c 20.47,0 35.64,-4.568 45.51,-13.549 9.86,-9.13 14.87,-21.06 14.87,-35.636 0,-15.022 -5.01,-27.095 -14.87,-36.228 -9.87,-8.981 -25.04,-13.549 -45.51,-13.549 z m 344.74,-263.301 h -44.91 V 82.3617 c 0,-26.8006 -5.89,-46.3878 -17.67,-59.0531 -11.78,-12.6653 -27.25,-18.99483 -46.09,-18.99483 -20.47,0 -36.38,6.62413 -47.57,19.87873 -11.2,13.2545 -16.79,32.544 -16.79,58.1692 V 569.061 c 0,27.539 6.18,47.566 18.56,59.937 12.37,12.371 32.39,18.554 59.93,18.554 h 208.37 c 28.72,0 53.31,-1.178 73.79,-3.681 20.46,-2.502 38.87,-7.365 55.22,-14.873 19.88,-8.395 37.4,-20.322 52.72,-35.785 15.17,-15.608 26.8,-33.722 34.6,-54.193 7.96,-20.617 11.93,-42.412 11.93,-65.532 0,-47.123 -13.25,-84.824 -39.9,-113.097 -26.66,-28.128 -67.01,-48.153 -121.05,-59.934 22.67,-12.076 44.47,-29.896 65.23,-53.459 20.62,-23.56 39.17,-48.741 55.37,-75.25 16.2,-26.652 28.87,-50.51 38,-72.0103 8.98,-21.3518 13.54,-36.0794 13.54,-44.1766 0,-8.2492 -2.64,-16.4953 -7.95,-24.7414 -5.3,-8.2461 -12.51,-14.7276 -21.79,-19.4383 -9.13,-4.71072 -19.88,-7.06763 -31.96,-7.06763 -14.28,0 -26.36,3.38651 -36.23,10.15953 -9.71,6.7761 -18.11,15.3137 -25.18,25.6252 -7.06,10.3053 -16.64,25.6221 -28.71,45.6497 l -51.4,85.4098 c -18.41,31.22 -34.9,55.078 -49.33,71.424 -14.58,16.492 -29.3,27.685 -44.33,33.723 -14.87,6.038 -33.72,8.984 -56.4,8.984 z m 73.34,265.952 H 2876.36 V 377.177 h 114.72 c 30.77,0 56.69,2.652 77.75,7.955 20.91,5.3 36.96,14.433 48.01,27.244 11.04,12.811 16.64,30.482 16.64,52.866 0,17.671 -4.42,33.133 -13.4,46.534 -8.84,13.4 -21.21,23.414 -37.11,30.041 -14.88,6.333 -44.33,9.424 -88.36,9.424 z m 557.24,30.042 246.22,-372.867 v 376.402 c 0,24.444 5.3,42.707 15.76,54.929 10.45,12.221 24.59,18.405 42.41,18.405 18.26,0 32.84,-6.038 43.44,-18.26 10.6,-12.221 15.9,-30.63 15.9,-55.074 V 87.5159 c 0,-55.5177 -22.97,-83.20213 -68.91,-83.20213 -11.49,0 -21.8,1.61883 -31.08,5.00534 -9.13,3.24079 -17.81,8.54069 -25.77,15.61149 -8.1,7.2133 -15.46,15.6083 -22.38,25.3275 -6.92,9.5703 -13.84,19.4383 -20.77,29.4521 L 3506.49,447.866 V 77.6479 c 0,-24.1522 -5.59,-42.4121 -16.79,-54.7796 -11.33,-12.3707 -25.77,-18.55453 -43.29,-18.55453 -18.11,0 -32.69,6.18383 -43.59,18.70023 -11.05,12.5165 -16.5,30.7763 -16.5,54.6339 V 565.38 c 0,20.762 2.36,36.963 6.93,48.745 5.45,12.956 14.58,23.559 27.24,31.805 12.66,8.101 26.36,12.222 40.94,12.222 11.63,0 21.5,-1.91 29.6,-5.594 8.25,-3.83 15.46,-8.836 21.64,-15.168 6.19,-6.333 12.52,-14.43 19,-24.593 6.48,-10.014 13.26,-20.468 20.18,-31.514 z m 897.27,-494.651 -30.19,79.375 H 4161.81 L 4131.62,85.0132 C 4119.84,53.35 4109.83,31.9982 4101.43,20.9517 4093.18,9.90834 4079.49,4.31377 4060.49,4.31377 c -16.05,0 -30.34,5.88913 -42.7,17.67063 -12.38,11.7815 -18.56,25.1818 -18.56,40.0551 0,8.6865 1.47,17.6707 4.27,26.8006 2.94,9.2788 7.66,21.9409 14.29,38.4359 l 161.69,410.565 c 4.71,11.782 10.16,25.917 16.64,42.412 6.48,16.641 13.4,30.336 20.76,41.234 7.37,10.897 16.94,19.733 28.87,26.506 11.93,6.773 26.65,10.159 44.17,10.159 17.97,0 32.84,-3.386 44.77,-10.159 11.93,-6.773 21.5,-15.463 28.87,-26.066 7.36,-10.6 13.54,-22.09 18.55,-34.312 5.01,-12.221 11.49,-28.568 19.14,-48.89 l 165.23,-408.062 c 12.96,-31.0742 19.44,-53.6044 19.44,-67.7396 0,-14.5788 -6.04,-28.1279 -18.26,-40.3498 -12.22,-12.2249 -27.1,-18.25983 -44.33,-18.25983 -10.01,0 -18.7,1.76458 -25.91,5.44881 -7.07,3.53222 -13.11,8.39182 -18.12,14.57872 -4.86,6.1838 -10.01,15.7572 -15.61,28.4194 -5.74,12.8111 -10.45,24.1522 -14.57,33.8713 z m -253.59,175.683 h 188.93 l -95.27,260.653 z m 817.6,279.207 H 4873.38 V 82.3617 c 0,-26.5091 -5.9,-46.0932 -17.82,-58.9073 -11.78,-12.8111 -27.1,-19.14063 -45.8,-19.14063 -19,0 -34.61,6.47843 -46.54,19.43523 -11.92,12.963 -17.96,32.3982 -17.96,58.6127 V 541.522 h -139.75 c -21.95,0 -38.15,4.86 -48.75,14.433 -10.6,9.719 -16.05,22.531 -16.05,38.433 0,16.347 5.6,29.307 16.64,38.88 11.05,9.571 27.1,14.284 48.16,14.284 h 407.62 c 22.23,0 38.58,-4.859 49.48,-14.727 10.75,-9.865 16.19,-22.679 16.19,-38.437 0,-15.902 -5.59,-28.714 -16.49,-38.433 -10.89,-9.573 -27.24,-14.433 -49.18,-14.433 z M 5159.65,82.3617 V 580.548 c 0,25.917 5.9,45.209 17.67,58.169 11.79,12.957 27.1,19.435 45.8,19.435 19.15,0 34.75,-6.329 46.68,-19.14 11.93,-12.811 17.97,-32.253 17.97,-58.464 V 82.3617 c 0,-26.2145 -6.04,-45.6497 -17.97,-58.6127 -11.93,-12.9568 -27.53,-19.43523 -46.68,-19.43523 -18.4,0 -33.57,6.47843 -45.5,19.58413 -11.93,13.1087 -17.97,32.5439 -17.97,58.4638 z m 549.59,575.7903 c 65.67,0 121.93,-13.251 168.91,-39.906 46.97,-26.509 82.61,-64.353 106.76,-113.392 24.15,-49.04 36.23,-106.616 36.23,-172.737 0,-48.891 -6.63,-93.365 -19.89,-133.274 -13.25,-40.052 -32.98,-74.659 -59.49,-103.9649 -26.51,-29.3063 -58.91,-51.6877 -97.49,-67.296 -38.58,-15.4657 -82.61,-23.26833 -132.39,-23.26833 -49.48,0 -93.8,7.95143 -132.82,24.00333 -39.18,15.9029 -71.72,38.4362 -97.94,67.4449 -26.21,29.012 -45.94,63.91 -59.34,104.852 -13.4,40.79 -20.03,84.969 -20.03,132.387 0,48.596 6.92,93.07 20.91,133.714 13.99,40.496 34.17,74.956 60.67,103.524 26.37,28.423 58.61,50.218 96.61,65.237 37.84,15.168 80.99,22.676 129.3,22.676 z m 182.01,-325.151 c 0,46.239 -7.51,86.443 -22.38,120.46 -15.03,33.871 -36.38,59.493 -64.06,77.018 -27.69,17.376 -59.64,26.066 -95.57,26.066 -25.48,0 -49.19,-4.86 -70.84,-14.433 -21.79,-9.72 -40.49,-23.709 -56.11,-42.118 -15.61,-18.405 -27.97,-41.968 -37.11,-70.537 -8.98,-28.717 -13.54,-60.817 -13.54,-96.456 0,-36.08 4.56,-68.478 13.54,-97.635 9.14,-29.009 21.95,-53.161 38.44,-72.305 16.49,-19.144 35.49,-33.431 56.84,-42.855 21.5,-9.571 44.92,-14.281 70.54,-14.281 32.84,0 62.88,8.243 90.42,24.592 27.39,16.343 49.19,41.674 65.53,75.986 16.2,34.163 24.3,76.429 24.3,126.498 z m 406.74,248.282 246.22,-372.867 v 376.402 c 0,24.444 5.3,42.707 15.75,54.929 10.46,12.221 24.6,18.405 42.42,18.405 18.25,0 32.83,-6.038 43.44,-18.26 10.6,-12.221 15.9,-30.63 15.9,-55.074 V 87.5159 c 0,-55.5177 -22.97,-83.20213 -68.92,-83.20213 -11.48,0 -21.79,1.61883 -31.07,5.00534 -9.13,3.24079 -17.82,8.54069 -25.77,15.61149 -8.1,7.2133 -15.46,15.6083 -22.38,25.3275 -6.92,9.5703 -13.85,19.4383 -20.77,29.4521 L 6252.63,447.866 V 77.6479 c 0,-24.1522 -5.6,-42.4121 -16.79,-54.7796 -11.34,-12.3707 -25.77,-18.55453 -43.29,-18.55453 -18.12,0 -32.69,6.18383 -43.59,18.70023 -11.05,12.5165 -16.49,30.7763 -16.49,54.6339 V 565.38 c 0,20.762 2.35,36.963 6.91,48.745 5.45,12.956 14.58,23.559 27.25,31.805 12.66,8.101 26.36,12.222 40.94,12.222 11.63,0 21.5,-1.91 29.6,-5.594 8.24,-3.83 15.46,-8.836 21.64,-15.168 6.19,-6.333 12.52,-14.43 19,-24.593 6.48,-10.014 13.25,-20.468 20.18,-31.514 z m 897.26,-494.651 -30.19,79.375 h -257.11 l -30.19,-80.9938 c -11.79,-31.6632 -21.8,-53.015 -30.19,-64.0615 -8.25,-11.04336 -21.94,-16.63793 -40.94,-16.63793 -16.05,0 -30.34,5.88913 -42.71,17.67063 -12.37,11.7815 -18.55,25.1818 -18.55,40.0551 0,8.6865 1.47,17.6707 4.27,26.8006 2.94,9.2788 7.66,21.9409 14.28,38.4359 l 161.7,410.565 c 4.71,11.782 10.16,25.917 16.64,42.412 6.48,16.641 13.4,30.336 20.76,41.234 7.37,10.897 16.94,19.733 28.87,26.506 11.92,6.773 26.65,10.159 44.17,10.159 17.97,0 32.84,-3.386 44.77,-10.159 11.93,-6.773 21.5,-15.463 28.86,-26.066 7.37,-10.6 13.55,-22.09 18.56,-34.312 5.01,-12.221 11.49,-28.568 19.14,-48.89 l 165.23,-408.062 c 12.96,-31.0742 19.44,-53.6044 19.44,-67.7396 0,-14.5788 -6.04,-28.1279 -18.26,-40.3498 -12.23,-12.2249 -27.1,-18.25983 -44.33,-18.25983 -10.01,0 -18.7,1.76458 -25.92,5.44881 -7.06,3.53222 -13.1,8.39182 -18.11,14.57872 -4.86,6.1838 -10.01,15.7572 -15.61,28.4194 -5.74,12.8111 -10.46,24.1522 -14.58,33.8713 z m -253.58,175.683 h 188.94 l -95.28,260.653 z m 609.66,318.233 V 120.06 h 259.77 c 20.62,0 36.52,-5.005 47.57,-15.022 11.19,-10.1599 16.64,-22.8221 16.64,-37.99 0,-15.4626 -5.45,-28.1279 -16.35,-37.7013 -10.9,-9.5734 -26.95,-14.4299 -47.86,-14.4299 h -309.4 c -27.83,0 -47.86,6.1838 -60.08,18.5545 -12.22,12.3706 -18.4,32.3951 -18.4,59.9338 V 580.548 c 0,25.771 5.89,45.209 17.52,58.169 11.63,12.957 26.94,19.435 45.95,19.435 19.14,0 34.75,-6.329 46.67,-19.14 11.93,-12.811 17.97,-32.399 17.97,-58.464 z M 8591.44,541.522 H 8451.69 V 82.3617 c 0,-26.5091 -5.89,-46.0932 -17.82,-58.9073 -11.78,-12.8111 -27.1,-19.14063 -45.8,-19.14063 -19,0 -34.61,6.47843 -46.54,19.43523 -11.92,12.963 -17.96,32.3982 -17.96,58.6127 V 541.522 h -139.75 c -21.94,0 -38.14,4.86 -48.74,14.433 -10.61,9.719 -16.06,22.531 -16.06,38.433 0,16.347 5.6,29.307 16.64,38.88 11.05,9.571 27.1,14.284 48.16,14.284 h 407.62 c 22.24,0 38.58,-4.859 49.48,-14.727 10.75,-9.865 16.2,-22.679 16.2,-38.437 0,-15.902 -5.6,-28.714 -16.49,-38.433 -10.9,-9.573 -27.25,-14.433 -49.19,-14.433 z m 490.38,-454.89 -30.19,79.375 H 8794.51 L 8764.32,85.0132 C 8752.54,53.35 8742.53,31.9982 8734.14,20.9517 8725.89,9.90834 8712.2,4.31377 8693.2,4.31377 c -16.05,0 -30.34,5.88913 -42.71,17.67063 -12.37,11.7815 -18.55,25.1818 -18.55,40.0551 0,8.6865 1.47,17.6707 4.27,26.8006 2.94,9.2788 7.66,21.9409 14.28,38.4359 l 161.7,410.565 c 4.71,11.782 10.15,25.917 16.64,42.412 6.47,16.641 13.4,30.336 20.76,41.234 7.36,10.897 16.93,19.733 28.86,26.506 11.93,6.773 26.66,10.159 44.18,10.159 17.97,0 32.84,-3.386 44.77,-10.159 11.93,-6.773 21.5,-15.463 28.86,-26.066 7.37,-10.6 13.55,-22.09 18.56,-34.312 5.01,-12.221 11.48,-28.568 19.14,-48.89 l 165.23,-408.062 c 12.96,-31.0742 19.44,-53.6044 19.44,-67.7396 0,-14.5788 -6.04,-28.1279 -18.26,-40.3498 -12.23,-12.2249 -27.1,-18.25983 -44.33,-18.25983 -10.01,0 -18.7,1.76458 -25.92,5.44881 -7.06,3.53222 -13.1,8.39182 -18.11,14.57872 -4.86,6.1838 -10.01,15.7572 -15.61,28.4194 -5.74,12.8111 -10.46,24.1522 -14.58,33.8713 z m -253.58,175.683 h 188.93 L 8921.9,522.968 Z M 9729.18,548.59 H 9440.55 V 393.083 h 265.81 c 19.58,0 34.16,-4.419 43.74,-13.108 9.72,-8.687 14.43,-20.319 14.43,-34.604 0,-14.284 -4.71,-26.065 -14.14,-35.049 -9.57,-8.985 -24.15,-13.546 -44.03,-13.546 H 9440.55 V 116.525 h 298.5 c 20.17,0 35.34,-4.711 45.5,-13.99 10.31,-9.2788 15.47,-21.7952 15.47,-37.2578 0,-14.8734 -5.16,-27.0952 -15.47,-36.374 -10.16,-9.2757 -25.33,-13.9864 -45.5,-13.9864 h -348.13 c -27.83,0 -47.86,6.1838 -60.08,18.5545 -12.22,12.3706 -18.41,32.3951 -18.41,59.9338 V 569.061 c 0,18.409 2.8,33.428 8.25,45.064 5.45,11.632 13.99,20.173 25.62,25.473 11.64,5.303 26.51,7.954 44.62,7.954 h 338.26 c 20.47,0 35.64,-4.568 45.51,-13.549 9.86,-9.13 14.87,-21.06 14.87,-35.636 0,-15.022 -5.01,-27.095 -14.87,-36.228 -9.87,-8.981 -25.04,-13.549 -45.51,-13.549 z m 301.62,31.809 V 358.623 l 251.5,262.42 c 12.1,12.666 22.4,21.941 30.8,27.979 8.5,6.038 19.9,9.13 33.8,9.13 18.5,0 33.5,-5.449 44.8,-16.197 11.4,-10.752 16.9,-23.855 16.9,-39.466 0,-18.7 -9.5,-37.258 -28.8,-55.664 l -155.7,-147.409 179.4,-257.117 c 12.7,-17.82 22.2,-33.431 28.6,-46.8316 6.3,-13.2515 9.4,-26.3602 9.4,-39.0256 0,-13.9864 -5.6,-26.2113 -16.7,-36.6685 -11,-10.30534 -26,-15.45953 -45,-15.45953 -17.8,0 -32.4,3.82688 -43.6,11.48683 -11.2,7.508 -20.6,17.6707 -28.4,30.336 -7.8,12.6622 -14.7,24.149 -20.8,34.4574 L 10135.6,313.562 10030.8,213.13 V 82.3617 c 0,-26.5091 -6.1,-46.0932 -18.1,-58.9073 -12.1,-12.8111 -27.72,-19.14063 -46.57,-19.14063 -11.05,0 -21.5,2.94304 -31.52,8.68643 -10.15,5.7435 -17.81,13.4003 -23.26,23.2683 -4.12,7.9515 -6.48,17.3761 -7.37,27.9791 -0.88,10.603 -1.32,26.0656 -1.32,46.0934 v 470.207 c 0,25.917 5.74,45.209 17.08,58.169 11.34,12.957 26.8,19.435 46.39,19.435 19.14,0 34.77,-6.329 46.67,-19.14 11.9,-12.811 18,-32.399 18,-58.613 z m 972.9,-465.639 -102.3,379.05 -103.5,-379.05 c -8.1,-28.8661 -14.5,-49.4828 -19.2,-61.9993 -4.7,-12.3676 -13.1,-23.7087 -24.9,-33.5736 -11.8,-9.86799 -27.4,-14.87333 -46.9,-14.87333 -15.9,0 -28.9,2.94304 -39.1,8.83533 -10.3,5.8892 -18.5,14.2841 -24.9,25.0329 -6.3,10.7518 -11.4,23.5629 -15.4,38.4363 -4.1,14.7276 -7.7,28.4197 -10.9,41.0847 l -105.2,425.733 c -6.3,24.741 -9.5,43.59 -9.5,56.55 0,16.347 5.7,30.187 17.2,41.383 11.5,11.189 25.8,16.783 42.7,16.783 23.4,0 39,-7.508 47.1,-22.381 8,-15.022 15,-36.669 21.1,-65.237 l 82.9,-369.185 92.8,345.476 c 6.9,26.506 13.1,46.683 18.5,60.375 5.5,13.843 14.5,25.774 26.8,35.784 12.4,10.163 29.2,15.168 50.4,15.168 21.6,0 38.4,-5.3 50.4,-15.754 11.9,-10.457 20.1,-21.941 24.7,-34.312 4.6,-12.37 10.7,-32.692 18.5,-61.261 l 93.7,-345.476 82.9,369.185 c 4,19.293 7.8,34.461 11.4,45.355 3.6,10.898 9.8,20.766 18.5,29.306 8.8,8.69 21.5,12.957 38.3,12.957 16.6,0 30.8,-5.594 42.4,-16.638 11.6,-11.046 17.5,-24.887 17.5,-41.528 0,-11.781 -3.1,-30.63 -9.4,-56.55 L 11185,117.703 c -7.2,-28.7141 -13.2,-49.7743 -18,-63.1746 -4.7,-13.4003 -12.8,-25.036 -24.1,-35.0467 -11.3,-10.16259 -27.4,-15.16793 -48.2,-15.16793 -19.5,0 -35.2,4.85648 -46.9,14.72453 -11.8,9.7191 -20.1,20.7656 -24.6,32.9874 -4.7,12.2219 -11.1,33.1333 -19.5,62.7343 z m 669.9,543.392 c 65.7,0 122,-13.251 168.9,-39.906 47,-26.509 82.7,-64.353 106.8,-113.392 24.2,-49.04 36.2,-106.616 36.2,-172.737 0,-48.891 -6.6,-93.365 -19.9,-133.274 -13.2,-40.052 -32.9,-74.659 -59.4,-103.9649 -26.6,-29.3063 -59,-51.6877 -97.5,-67.296 -38.6,-15.4657 -82.6,-23.26833 -132.4,-23.26833 -49.5,0 -93.8,7.95143 -132.9,24.00333 -39.1,15.9029 -71.7,38.4362 -97.9,67.4449 -26.2,29.012 -45.9,63.91 -59.3,104.852 -13.4,40.79 -20.1,84.969 -20.1,132.387 0,48.596 7,93.07 21,133.714 13.9,40.496 34.1,74.956 60.6,103.524 26.4,28.423 58.6,50.218 96.6,65.237 37.9,15.168 81,22.676 129.3,22.676 z m 182,-325.151 c 0,46.239 -7.5,86.443 -22.3,120.46 -15.1,33.871 -36.4,59.493 -64.1,77.018 -27.7,17.376 -59.6,26.066 -95.6,26.066 -25.4,0 -49.2,-4.86 -70.8,-14.433 -21.8,-9.72 -40.5,-23.709 -56.1,-42.118 -15.6,-18.405 -28,-41.968 -37.1,-70.537 -9,-28.717 -13.6,-60.817 -13.6,-96.456 0,-36.08 4.6,-68.478 13.6,-97.635 9.1,-29.009 21.9,-53.161 38.4,-72.305 16.5,-19.144 35.5,-33.431 56.9,-42.855 21.5,-9.571 44.9,-14.281 70.5,-14.281 32.8,0 62.9,8.243 90.4,24.592 27.4,16.343 49.2,41.674 65.5,75.986 16.2,34.163 24.3,76.429 24.3,126.498 z m 406.8,248.282 246.2,-372.867 v 376.402 c 0,24.444 5.3,42.707 15.8,54.929 10.4,12.221 24.6,18.405 42.4,18.405 18.2,0 32.8,-6.038 43.4,-18.26 10.6,-12.221 15.9,-30.63 15.9,-55.074 V 87.5159 c 0,-55.5177 -23,-83.20213 -68.9,-83.20213 -11.5,0 -21.8,1.61883 -31.1,5.00534 -9.1,3.24079 -17.8,8.54069 -25.7,15.61149 -8.1,7.2133 -15.5,15.6083 -22.4,25.3275 -7,9.5703 -13.9,19.4383 -20.8,29.4521 L 12217,447.866 V 77.6479 c 0,-24.1522 -5.6,-42.4121 -16.8,-54.7796 -11.3,-12.3707 -25.7,-18.55453 -43.3,-18.55453 -18.1,0 -32.6,6.18383 -43.5,18.70023 -11.1,12.5165 -16.5,30.7763 -16.5,54.6339 V 565.38 c 0,20.762 2.3,36.963 6.9,48.745 5.4,12.956 14.6,23.559 27.2,31.805 12.7,8.101 26.4,12.222 41,12.222 11.6,0 21.5,-1.91 29.6,-5.594 8.2,-3.83 15.4,-8.836 21.6,-15.168 6.2,-6.333 12.5,-14.43 19,-24.593 6.5,-10.014 13.3,-20.468 20.2,-31.514 z m 650.9,-388.77 h -136.4 c -20.7,0 -36.5,4.86 -47.3,14.43 -10.7,9.719 -16.2,22.236 -16.2,37.553 0,15.462 5.3,28.127 15.8,37.847 10.5,9.57 26.4,14.433 47.7,14.433 h 136.4 c 21.3,0 37.2,-4.863 47.7,-14.433 10.4,-9.72 15.7,-22.385 15.7,-37.847 0,-15.317 -5.1,-27.834 -15.6,-37.553 -10.3,-9.57 -26.2,-14.43 -47.8,-14.43 z m 226.8,455.039 h 167 c 43.4,0 80.7,-3.975 111.7,-12.076 31.2,-8.1 59.4,-23.268 84.7,-45.355 65.8,-56.404 98.8,-142.255 98.8,-257.266 0,-37.996 -3.2,-72.602 -9.9,-103.971 -6.6,-31.365 -16.9,-59.639 -30.6,-84.821 -13.8,-25.182 -31.5,-47.7118 -53.1,-67.5905 -17,-15.168 -35.5,-27.3929 -55.7,-36.5228 -20.2,-9.2757 -41.8,-15.7572 -65,-19.4384 -23.1,-3.6811 -49.3,-5.5945 -78.3,-5.5945 h -167 c -23.3,0 -40.8,3.5322 -52.7,10.5999 -11.8,7.0676 -19.4,16.9387 -23,29.7498 -3.7,12.8111 -5.4,29.4521 -5.4,49.7715 v 464.023 c 0,27.539 6.2,47.566 18.5,59.937 12.4,12.371 32.4,18.554 60,18.554 z m 49.6,-101.61 V 116.525 h 97.2 c 21.2,0 38,0.589 50.1,1.77 12,1.176 24.5,3.973 37.5,8.538 13,4.714 24.2,11.192 33.6,19.441 42.8,36.225 64.3,98.665 64.3,187.316 0,62.439 -9.4,109.268 -28.2,140.339 -18.9,31.074 -42.2,50.807 -69.7,59.347 -27.7,8.395 -61.1,12.666 -100.1,12.666 z m 803.3,112.21 c 65.7,0 121.9,-13.251 168.9,-39.906 47,-26.509 82.6,-64.353 106.8,-113.392 24.1,-49.04 36.2,-106.616 36.2,-172.737 0,-48.891 -6.6,-93.365 -19.9,-133.274 -13.2,-40.052 -33,-74.659 -59.5,-103.9649 -26.5,-29.3063 -58.9,-51.6877 -97.5,-67.296 -38.5,-15.4657 -82.6,-23.26833 -132.3,-23.26833 -49.5,0 -93.9,7.95143 -132.9,24.00333 -39.2,15.9029 -71.7,38.4362 -97.9,67.4449 -26.2,29.012 -46,63.91 -59.4,104.852 -13.4,40.79 -20,84.969 -20,132.387 0,48.596 6.9,93.07 20.9,133.714 14,40.496 34.2,74.956 60.7,103.524 26.4,28.423 58.6,50.218 96.6,65.237 37.8,15.168 81,22.676 129.3,22.676 z m 182,-325.151 c 0,46.239 -7.5,86.443 -22.4,120.46 -15,33.871 -36.3,59.493 -64,77.018 -27.7,17.376 -59.7,26.066 -95.6,26.066 -25.5,0 -49.2,-4.86 -70.8,-14.433 -21.8,-9.72 -40.5,-23.709 -56.1,-42.118 -15.6,-18.405 -28,-41.968 -37.1,-70.537 -9,-28.717 -13.6,-60.817 -13.6,-96.456 0,-36.08 4.6,-68.478 13.6,-97.635 9.1,-29.009 21.9,-53.161 38.4,-72.305 16.5,-19.144 35.5,-33.431 56.8,-42.855 21.5,-9.571 44.9,-14.281 70.6,-14.281 32.8,0 62.8,8.243 90.4,24.592 27.4,16.343 49.2,41.674 65.5,75.986 16.2,34.163 24.3,76.429 24.3,126.498 z m 838.2,215.589 h -252.4 V 386.896 h 211 c 19.5,0 34.2,-4.416 43.8,-13.105 9.6,-8.836 14.4,-20.617 14.4,-35.196 0,-14.724 -4.8,-26.357 -14.6,-35.046 -9.8,-8.69 -24.4,-12.96 -43.6,-12.96 h -211 V 82.3617 c 0,-26.5091 -6,-46.0932 -17.9,-58.9073 -12,-12.8111 -27.3,-19.14063 -45.8,-19.14063 -19,0 -34.5,6.47843 -46.4,19.43523 -12,12.963 -18,32.5471 -18,58.6127 V 569.061 c 0,18.409 2.8,33.428 8.3,45.064 5.4,11.632 13.9,20.173 25.6,25.473 11.6,5.303 26.5,7.954 44.6,7.954 h 302 c 20.5,0 35.7,-4.568 45.5,-13.549 9.9,-9.13 14.9,-21.06 14.9,-35.636 0,-15.022 -5,-27.095 -14.9,-36.228 -9.8,-8.981 -25,-13.549 -45.5,-13.549 z m 572.6,0 h -288.7 V 393.083 h 265.9 c 19.5,0 34.1,-4.419 43.7,-13.108 9.7,-8.687 14.4,-20.319 14.4,-34.604 0,-14.284 -4.7,-26.065 -14.1,-35.049 -9.6,-8.985 -24.2,-13.546 -44,-13.546 h -265.9 V 116.525 h 298.5 c 20.2,0 35.4,-4.711 45.5,-13.99 10.4,-9.2788 15.5,-21.7952 15.5,-37.2578 0,-14.8734 -5.1,-27.0952 -15.5,-36.374 -10.1,-9.2757 -25.3,-13.9864 -45.5,-13.9864 h -348.1 c -27.8,0 -47.8,6.1838 -60.1,18.5545 -12.2,12.3706 -18.4,32.3951 -18.4,59.9338 V 569.061 c 0,18.409 2.8,33.428 8.3,45.064 5.4,11.632 14,20.173 25.6,25.473 11.6,5.303 26.5,7.954 44.6,7.954 h 338.3 c 20.5,0 35.6,-4.568 45.5,-13.549 9.8,-9.13 14.9,-21.06 14.9,-35.636 0,-15.022 -5.1,-27.095 -14.9,-36.228 -9.9,-8.981 -25,-13.549 -45.5,-13.549 z m 251.9,98.962 h 167 c 43.5,0 80.7,-3.975 111.8,-12.076 31.2,-8.1 59.4,-23.268 84.7,-45.355 65.8,-56.404 98.8,-142.255 98.8,-257.266 0,-37.996 -3.2,-72.602 -9.9,-103.971 -6.6,-31.365 -16.9,-59.639 -30.6,-84.821 -13.8,-25.182 -31.5,-47.7118 -53.2,-67.5905 -16.9,-15.168 -35.4,-27.3929 -55.6,-36.5228 -20.2,-9.2757 -41.8,-15.7572 -65,-19.4384 -23.1,-3.6811 -49.3,-5.5945 -78.3,-5.5945 h -167 c -23.3,0 -40.8,3.5322 -52.7,10.5999 -11.8,7.0676 -19.5,16.9387 -23,29.7498 -3.7,12.8111 -5.4,29.4521 -5.4,49.7715 v 464.023 c 0,27.539 6.1,47.566 18.5,59.937 12.4,12.371 32.4,18.554 59.9,18.554 z m 49.7,-101.61 V 116.525 h 97.2 c 21.2,0 38,0.589 50,1.77 12.1,1.176 24.6,3.973 37.6,8.538 12.9,4.714 24.1,11.192 33.6,19.441 42.8,36.225 64.3,98.665 64.3,187.316 0,62.439 -9.4,109.268 -28.3,140.339 -18.8,31.074 -42.1,50.807 -69.6,59.347 -27.7,8.395 -61.1,12.666 -100.1,12.666 h -84.7" /></g><g
         transform="scale(1.56518)"
         id="g46"><path
           id="path48"
           style="fill:#231f20;fill-opacity:1;fill-rule:nonzero;stroke:none"
           d="m 13543.3,441.482 h -232.2 V 316.337 h 213.9 c 15.7,0 27.5,-3.557 35.2,-10.55 7.8,-6.99 11.6,-16.352 11.6,-27.847 0,-11.495 -3.8,-20.976 -11.4,-28.207 -7.7,-7.23 -19.4,-10.901 -35.4,-10.901 h -213.9 V 93.7739 h 240.2 c 16.2,0 28.4,-3.791 36.6,-11.2582 8.3,-7.4671 12.4,-17.5398 12.4,-29.9835 0,-11.9694 -4.1,-21.805 -12.4,-29.2722 -8.2,-7.4646 -20.4,-11.2556 -36.6,-11.2556 h -280.2 c -22.4,0 -38.5,4.9764 -48.3,14.9318 -9.9,9.9554 -14.8,26.0702 -14.8,48.2322 V 457.956 c 0,14.814 2.2,26.901 6.6,36.265 4.4,9.361 11.3,16.235 20.6,20.5 9.4,4.267 21.3,6.401 35.9,6.401 h 272.2 c 16.5,0 28.7,-3.676 36.7,-10.904 7.9,-7.347 11.9,-16.948 11.9,-28.678 0,-12.089 -4,-21.805 -11.9,-29.155 -8,-7.227 -20.2,-10.903 -36.7,-10.903 z m 277.5,-211.894 h -36.2 V 66.2811 c 0,-21.5679 -4.7,-37.3308 -14.2,-47.5233 -9.5,-10.19252 -21.9,-15.28626 -37.1,-15.28626 -16.5,0 -29.3,5.33084 -38.3,15.99756 -9,10.6666 -13.5,26.19 -13.5,46.812 V 457.956 c 0,22.162 5,38.279 15,48.234 9.9,9.956 26,14.932 48.2,14.932 h 167.7 c 23.1,0 42.9,-0.948 59.4,-2.962 16.4,-2.014 31.2,-5.928 44.4,-11.97 16,-6.756 30.1,-16.354 42.4,-28.798 12.2,-12.561 21.6,-27.138 27.9,-43.612 6.4,-16.592 9.6,-34.132 9.6,-52.737 0,-37.923 -10.7,-68.263 -32.1,-91.016 -21.5,-22.636 -54,-38.751 -97.5,-48.232 18.3,-9.719 35.8,-24.059 52.5,-43.022 16.6,-18.959 31.6,-39.225 44.6,-60.558 13,-21.448 23.2,-40.6476 30.6,-57.9504 7.2,-17.183 10.9,-29.0351 10.9,-35.5514 0,-6.6386 -2.2,-13.2747 -6.4,-19.9108 -4.3,-6.6361 -10.1,-11.8521 -17.6,-15.64314 -7.3,-3.79098 -16,-5.68772 -25.7,-5.68772 -11.5,0 -21.2,2.72531 -29.1,8.17596 -7.9,5.4531 -14.6,12.3238 -20.3,20.6221 -5.7,8.2932 -13.4,20.6195 -23.1,36.7368 l -41.4,68.7346 c -14.8,25.124 -28.1,44.324 -39.7,57.479 -11.7,13.272 -23.5,22.279 -35.6,27.138 -12,4.859 -27.2,7.23 -45.4,7.23 z m 59,214.027 h -95.2 V 303.536 h 92.3 c 24.8,0 45.7,2.134 62.6,6.402 16.8,4.265 29.8,11.615 38.7,21.924 8.8,10.31 13.3,24.531 13.3,42.545 0,14.22 -3.5,26.664 -10.7,37.448 -7.1,10.784 -17.1,18.843 -29.9,24.176 -12,5.096 -35.7,7.584 -71.1,7.584 z m 639.6,-373.8973 -24.3,63.8773 h -206.9 l -24.3,-65.18 c -9.5,-25.4813 -17.6,-42.6642 -24.3,-51.554 -6.7,-8.8872 -17.7,-13.38946 -33,-13.38946 -12.9,0 -24.4,4.73935 -34.3,14.22056 -10,9.4812 -15,20.2652 -15,32.2346 0,6.9905 1.2,14.2206 3.5,21.568 2.3,7.4671 6.1,17.6571 11.5,30.9323 l 130.1,330.404 c 3.8,9.482 8.2,20.857 13.4,34.132 5.2,13.392 10.8,24.413 16.7,33.183 5.9,8.77 13.6,15.88 23.2,21.331 9.6,5.45 21.5,8.176 35.6,8.176 14.4,0 26.4,-2.726 36,-8.176 9.6,-5.451 17.3,-12.444 23.2,-20.977 6,-8.53 10.9,-17.777 15,-27.612 4,-9.836 9.2,-22.991 15.4,-39.345 l 132.9,-328.391 c 10.5,-25.0072 15.7,-43.1385 15.7,-54.514 0,-11.7323 -4.9,-22.6361 -14.7,-32.4717 -9.8,-9.83811 -21.8,-14.69476 -35.7,-14.69476 -8,0 -15,1.42006 -20.8,4.38496 -5.7,2.8426 -10.6,6.7534 -14.6,11.7323 -3.9,4.9765 -8.1,12.6808 -12.6,22.8708 -4.6,10.3097 -8.4,19.4366 -11.7,27.2581 z M 14315.3,211.1 h 152.1 l -76.7,209.762 z m 658,224.694 h -112.5 V 66.2811 c 0,-21.3333 -4.7,-37.0937 -14.3,-47.406 -9.5,-10.30982 -21.8,-15.40356 -36.9,-15.40356 -15.3,0 -27.8,5.21354 -37.4,15.64066 -9.6,10.432 -14.5,26.0727 -14.5,47.1689 V 435.794 h -112.5 c -17.6,0 -30.6,3.911 -39.2,11.615 -8.5,7.821 -12.9,18.131 -12.9,30.929 0,13.155 4.5,23.585 13.4,31.289 8.9,7.702 21.8,11.495 38.7,11.495 h 328.1 c 17.9,0 31,-3.911 39.8,-11.852 8.7,-7.939 13,-18.251 13,-30.932 0,-12.798 -4.5,-23.108 -13.2,-30.929 -8.8,-7.704 -22,-11.615 -39.6,-11.615 z M 15091.2,66.2811 V 467.2 c 0,20.856 4.7,36.382 14.2,46.812 9.5,10.427 21.8,15.641 36.9,15.641 15.4,0 27.9,-5.094 37.5,-15.404 9.6,-10.31 14.5,-25.955 14.5,-47.049 V 66.2811 c 0,-21.0962 -4.9,-36.7369 -14.5,-47.1689 -9.6,-10.42712 -22.1,-15.64066 -37.5,-15.64066 -14.8,0 -27,5.21354 -36.6,15.76046 -9.6,10.5493 -14.5,26.19 -14.5,47.0491 z m 442.3,463.3719 c 52.8,0 98.1,-10.665 135.9,-32.115 37.8,-21.334 66.5,-51.789 85.9,-91.254 19.5,-39.464 29.2,-85.8 29.2,-139.011 0,-39.345 -5.3,-75.136 -16,-107.253 -10.7,-32.232 -26.6,-60.0817 -47.9,-83.6662 -21.3,-23.5845 -47.4,-41.596 -78.4,-54.1569 -31.1,-12.44615 -66.5,-18.72536 -106.6,-18.72536 -39.8,0 -75.5,6.399 -106.9,19.31676 -31.5,12.7981 -57.7,30.9319 -78.8,54.2768 -21.1,23.3469 -37,51.4319 -47.8,84.3799 -10.7,32.826 -16.1,68.38 -16.1,106.54 0,39.107 5.6,74.898 16.9,107.607 11.2,32.589 27.5,60.322 48.8,83.312 21.2,22.873 47.2,40.413 77.7,52.5 30.5,12.206 65.2,18.249 104.1,18.249 z M 15680,267.985 c 0,37.211 -6.1,69.565 -18.1,96.941 -12,27.258 -29.2,47.877 -51.5,61.981 -22.3,13.983 -48,20.976 -76.9,20.976 -20.5,0 -39.6,-3.911 -57,-11.615 -17.6,-7.822 -32.6,-19.08 -45.2,-33.894 -12.5,-14.812 -22.5,-33.775 -29.8,-56.765 -7.3,-23.111 -10.9,-48.944 -10.9,-77.624 0,-29.036 3.6,-55.108 10.9,-78.573 7.3,-23.345 17.6,-42.781 30.9,-58.187 13.3,-15.406 28.5,-26.904 45.7,-34.4887 17.3,-7.7018 36.2,-11.4928 56.8,-11.4928 26.4,0 50.6,6.6336 72.8,19.7915 22,13.152 39.5,33.537 52.7,61.149 13,27.493 19.6,61.507 19.6,101.801 z m 327.3,199.806 198.1,-300.067 v 302.912 c 0,19.672 4.3,34.369 12.7,44.204 8.4,9.836 19.8,14.813 34.1,14.813 14.7,0 26.5,-4.86 35,-14.695 8.5,-9.836 12.8,-24.65 12.8,-44.322 V 70.429 c 0,-44.6782 -18.5,-66.95746 -55.5,-66.95746 -9.2,0 -17.5,1.30276 -25,4.02808 -7.3,2.60798 -14.3,6.87318 -20.7,12.56338 -6.5,5.8051 -12.5,12.5609 -18,20.3825 -5.6,7.7018 -11.2,15.6431 -16.7,23.7018 L 15970.8,360.423 V 62.4876 c 0,-19.4366 -4.5,-34.1313 -13.5,-44.0842 -9.2,-9.95541 -20.8,-14.93186 -34.9,-14.93186 -14.5,0 -26.3,4.97645 -35.1,15.04916 -8.8,10.0727 -13.2,24.7674 -13.2,43.9669 V 454.993 c 0,16.709 1.9,29.747 5.5,39.228 4.4,10.427 11.8,18.96 22,25.596 10.2,6.519 21.2,9.836 32.9,9.836 9.4,0 17.3,-1.538 23.8,-4.503 6.7,-3.082 12.5,-7.11 17.5,-12.206 4.9,-5.097 10,-11.613 15.2,-19.791 5.3,-8.059 10.7,-16.472 16.3,-25.362" /></g></g></g></svg>
