<?xml version="1.0" encoding="UTF-8" standalone="no"?>
<svg
   viewBox="0 0 213.54078 213.65413"
   height="213.65413"
   width="213.54079"
   xml:space="preserve"
   id="svg2"
   version="1.1"
   sodipodi:docname="ITF-_1_.svg"
   xmlns:inkscape="http://www.inkscape.org/namespaces/inkscape"
   xmlns:sodipodi="http://sodipodi.sourceforge.net/DTD/sodipodi-0.dtd"
   xmlns="http://www.w3.org/2000/svg"
   xmlns:svg="http://www.w3.org/2000/svg"
   xmlns:rdf="http://www.w3.org/1999/02/22-rdf-syntax-ns#"
   xmlns:cc="http://creativecommons.org/ns#"
   xmlns:dc="http://purl.org/dc/elements/1.1/"><sodipodi:namedview
     id="namedview1"
     pagecolor="#505050"
     bordercolor="#ffffff"
     borderopacity="1"
     inkscape:showpageshadow="0"
     inkscape:pageopacity="0"
     inkscape:pagecheckerboard="1"
     inkscape:deskcolor="#505050" /><metadata
     id="metadata8"><rdf:RDF><cc:Work
         rdf:about=""><dc:format>image/svg+xml</dc:format><dc:type
           rdf:resource="http://purl.org/dc/dcmitype/StillImage" /></cc:Work></rdf:RDF></metadata><defs
     id="defs6" /><g
     transform="matrix(1.3333333,0,0,-1.3333333,-21.733866,235.33066)"
     id="g10"><path
       id="path16"
       style="fill:#ffffff;fill-opacity:1;fill-rule:evenodd;stroke:none;stroke-width:0.1"
       d="m 96.3781,175.302 c 43.5849,0 78.8809,-35.381 78.8809,-78.8817 0,-43.5851 -35.296,-78.9664 -78.8809,-78.9664 -43.5855,0 -78.9664,35.3813 -78.9664,78.9664 0,43.5007 35.3809,78.8817 78.9664,78.8817" /><path
       id="path18"
       style="fill:#231f20;fill-opacity:1;fill-rule:evenodd;stroke:none;stroke-width:0.1"
       d="m 96.3781,176.498 v 0 0 c 22.1349,0 42.1329,-8.973 56.5759,-23.502 14.528,-14.443 23.502,-34.526 23.502,-56.5757 v 0 0 0 0 c 0,-22.134 -8.974,-42.1324 -23.502,-56.6609 C 138.511,25.2309 118.513,16.343 96.3781,16.2574 v 0 0 0 0 C 74.2438,16.343 54.2453,25.2309 39.7172,39.7594 25.2738,54.2879 16.3004,74.2863 16.3004,96.4203 v 0 0 0 0 c 0,22.0497 8.9734,42.1327 23.4168,56.5757 14.5281,14.529 34.5266,23.502 56.6609,23.502 z m 0,-2.393 v 0 0 0 0 c -21.4511,0 -40.9363,-8.717 -54.9519,-22.732 C 27.325,137.271 18.6082,117.871 18.6082,96.4203 v 0 0 0 0 c 0,-21.4504 8.7168,-40.9359 22.818,-54.9515 C 55.4418,27.3676 74.927,18.6504 96.3781,18.6504 v 0 0 0 0 c 21.4509,0 40.8509,8.7172 54.9519,22.8184 14.016,14.0156 22.733,33.5011 22.733,54.9515 v 0 0 0 0 c 0,21.4507 -8.717,40.8507 -22.733,54.9527 -14.101,14.015 -33.501,22.732 -54.9519,22.732" /><path
       id="path20"
       style="fill:#00adef;fill-opacity:1;fill-rule:evenodd;stroke:none;stroke-width:0.1"
       d="m 96.207,154.535 c 31.792,0 57.687,-25.81 57.687,-57.687 0,-31.7917 -25.895,-57.6867 -57.687,-57.6867 -31.8769,0 -57.6867,25.895 -57.6867,57.6867 0,31.877 25.8098,57.687 57.6867,57.687" /><g
       id="g22"
       transform="scale(0.1)"><path
         id="path24"
         style="fill:none;stroke:#ed1c24;stroke-width:19.9388;stroke-linecap:butt;stroke-linejoin:miter;stroke-miterlimit:2.6131;stroke-dasharray:none;stroke-opacity:1"
         d="m 962.071,1545.35 c 317.919,0 576.869,-258.1 576.869,-576.87 0,-317.918 -258.95,-576.867 -576.869,-576.867 -318.77,0 -576.868,258.949 -576.868,576.867 0,318.77 258.098,576.87 576.868,576.87 z" /></g><path
       id="path26"
       style="fill:#231f20;fill-opacity:1;fill-rule:evenodd;stroke:none;stroke-width:0.1"
       d="m 96.207,155.56 v 0 -0.085 c 16.152,0 30.852,-6.495 41.449,-17.178 10.598,-10.597 17.178,-25.211 17.178,-41.449 v 0 0 0 0 c 0,-16.1523 -6.58,-30.8519 -17.178,-41.4492 C 127.059,44.802 112.359,38.2211 96.207,38.2211 v 0 0 0 0 c -16.2375,0 -30.8515,6.5809 -41.4488,17.1777 C 44.0758,65.9961 37.5805,80.6957 37.5805,96.848 h -0.0856 v 0 0 h 0.0856 c 0,16.238 6.4953,30.852 17.1777,41.449 10.5973,10.683 25.2113,17.178 41.4488,17.178 z m 0,-2.051 v 0 0 0 0 c -15.6394,0 -29.8257,-6.324 -40.0812,-16.579 C 45.8703,126.674 39.5457,112.488 39.5457,96.848 v 0 0 0 0 c 0,-15.6394 6.3246,-29.8261 16.5801,-40.0816 C 66.3813,46.5109 80.5676,40.1871 96.207,40.1871 v 0 0 0 0 c 15.639,0 29.827,6.3238 40.082,16.5793 10.255,10.2555 16.579,24.4422 16.579,40.0816 v 0 0 0 0 c 0,15.64 -6.324,29.826 -16.579,40.082 -10.255,10.255 -24.443,16.579 -40.082,16.579" /><path
       id="path28"
       style="fill:#fff200;fill-opacity:1;fill-rule:evenodd;stroke:none;stroke-width:0.1"
       d="m 91.934,109.924 c 0.3418,2.564 8.546,3.333 10.597,0.427 1.966,-1.367 -0.683,-21.8783 -1.452,-26.4076 -0.599,-1.1965 -8.6321,-0.7692 -8.3755,1.282 C 91.934,107.445 90.9941,109.24 91.934,109.924" /><g
       id="g30"
       transform="scale(0.1)"><path
         id="path32"
         style="fill:none;stroke:#00adef;stroke-width:2.56385;stroke-linecap:butt;stroke-linejoin:miter;stroke-miterlimit:2.6131;stroke-dasharray:none;stroke-opacity:1"
         d="m 919.34,1099.24 c 3.418,25.63 85.46,33.33 105.97,4.27 19.66,-13.67 -6.83,-218.784 -14.52,-264.077 -5.99,-11.964 -86.321,-7.691 -83.755,12.821 -7.695,222.196 -17.093,240.146 -7.695,246.986 z" /></g><path
       id="path34"
       style="fill:#fff200;fill-opacity:1;fill-rule:evenodd;stroke:none;stroke-width:0.1"
       d="m 106.804,109.924 c 4.701,-1.111 8.803,-2.906 8.803,-4.957 0.342,-8.6315 -5.128,-20.5967 -6.837,-22.3057 -1.795,-0.9398 -6.666,-0.1707 -6.837,1.5383 3.675,23.3304 0.684,25.8954 4.871,25.7244" /><g
       id="g36"
       transform="scale(0.1)"><path
         id="path38"
         style="fill:none;stroke:#00adef;stroke-width:2.56385;stroke-linecap:butt;stroke-linejoin:miter;stroke-miterlimit:2.6131;stroke-dasharray:none;stroke-opacity:1"
         d="m 1068.04,1099.24 c 47.01,-11.11 88.03,-29.06 88.03,-49.57 3.42,-86.315 -51.28,-205.967 -68.37,-223.057 -17.95,-9.398 -66.66,-1.707 -68.37,15.383 36.75,233.304 6.84,258.954 48.71,257.244 z" /></g><path
       id="path40"
       style="fill:#fff200;fill-opacity:1;fill-rule:evenodd;stroke:none;stroke-width:0.1"
       d="m 80.4824,106.847 c 0.9399,3.589 5.4692,4.017 8.5457,3.248 2.6496,-0.855 1.966,-8.119 2.7352,-24.5278 -0.3418,-1.7098 -7.0934,-1.5383 -8.5465,0.9398 -0.2563,8.6317 -0.2563,12.4774 -0.7688,15.725 -0.2566,1.453 -2.3078,1.197 -1.9656,4.615" /><g
       id="g42"
       transform="scale(0.1)"><path
         id="path44"
         style="fill:none;stroke:#00adef;stroke-width:2.56385;stroke-linecap:butt;stroke-linejoin:miter;stroke-miterlimit:2.6131;stroke-dasharray:none;stroke-opacity:1"
         d="m 804.824,1068.47 c 9.399,35.89 54.692,40.17 85.458,32.48 26.496,-8.55 19.66,-81.19 27.351,-245.278 -3.418,-17.098 -70.934,-15.383 -85.465,9.398 -2.562,86.316 -2.562,124.774 -7.687,157.25 -2.567,14.53 -23.078,11.96 -19.657,46.15 z" /></g><path
       id="path46"
       style="fill:#fff200;fill-opacity:1;fill-rule:evenodd;stroke:none;stroke-width:0.1"
       d="m 83.2168,85.0543 c 1.8805,-1.0254 5.7262,-1.9656 8.5465,-0.7691 1.4527,1.4527 0.4273,-2.7348 -0.9403,-2.9911 -0.8546,-0.6839 -6.1531,-0.4273 -6.666,0.4274 -0.5129,0.8543 -1.282,2.7344 -0.9402,3.3328" /><g
       id="g48"
       transform="scale(0.1)"><path
         id="path50"
         style="fill:none;stroke:#00adef;stroke-width:2.56385;stroke-linecap:butt;stroke-linejoin:miter;stroke-miterlimit:2.6131;stroke-dasharray:none;stroke-opacity:1"
         d="m 832.168,850.543 c 18.805,-10.254 57.262,-19.656 85.465,-7.692 14.527,14.528 4.274,-27.347 -9.402,-29.91 -8.547,-6.84 -61.532,-4.273 -66.66,4.274 -5.129,8.543 -12.821,27.343 -9.403,33.328 z" /></g><path
       id="path52"
       style="fill:#fff200;fill-opacity:1;fill-rule:evenodd;stroke:none;stroke-width:0.1"
       d="m 81.6785,85.0543 c 0.5129,-0.4273 1.1965,-2.5637 1.7094,-3.1621 -0.9399,-1.0254 -4.3586,-0.8547 -5.8113,0.5125 -0.5129,1.1113 -1.8801,2.2223 -1.0254,2.6496 1.7945,-0.5984 3.8457,-0.2563 5.1273,0" /><g
       id="g54"
       transform="scale(0.1)"><path
         id="path56"
         style="fill:none;stroke:#00adef;stroke-width:2.56385;stroke-linecap:butt;stroke-linejoin:miter;stroke-miterlimit:2.6131;stroke-dasharray:none;stroke-opacity:1"
         d="m 816.785,850.543 c 5.129,-4.274 11.965,-25.637 17.094,-31.621 -9.398,-10.254 -43.586,-8.547 -58.113,5.125 -5.129,11.113 -18.801,22.222 -10.254,26.496 17.945,-5.985 38.457,-2.563 51.273,0 z" /></g><path
       id="path58"
       style="fill:#231f20;fill-opacity:1;fill-rule:evenodd;stroke:none;stroke-width:0.1"
       d="m 82.1059,36.1699 -2.7348,-11.6222 -2.3074,0.598 2.6492,11.5371 z m -4.6149,1.1965 -4.273,-11.1098 -2.1367,0.8547 -1.709,9.1446 -2.8203,-7.4356 -2.1368,0.7692 4.2735,11.1101 2.3074,-0.8547 1.6234,-8.9734 2.8203,7.2644 z m -13.332,5.9824 -5.384,-8.2894 2.9059,-1.966 -1.0258,-1.6235 -7.9481,5.1278 1.1114,1.7089 2.9054,-1.9656 5.384,8.2895 z m -6.2387,4.0168 -8.1191,-8.7168 -6.4949,6.0676 1.3675,1.4527 4.7004,-4.3586 1.7946,1.8801 -4.3586,4.1024 1.3675,1.4527 4.3586,-4.1023 2.2219,2.3929 -4.8711,4.5297 1.3672,1.4531 z m -8.2043,7.6063 -9.4863,-7.1789 -3.0766,4.1019 c -0.7691,1.0258 -1.2816,1.7949 -1.4531,2.393 -0.1707,0.598 -0.0852,1.1965 0.0855,1.7949 0.2567,0.5981 0.684,1.1106 1.1965,1.5383 0.7692,0.5125 1.4532,0.7691 2.2223,0.6836 0.7691,-0.0856 1.5383,-0.4274 2.3074,-1.1961 -0.0855,0.5977 -0.0855,1.1105 0,1.6234 0.1707,0.5125 0.3418,1.1965 0.7692,2.2223 l 0.9402,2.5637 1.7945,-2.3075 -1.0258,-2.9058 c -0.4269,-1.0254 -0.598,-1.709 -0.6835,-2.0512 0,-0.3418 0,-0.598 0.0855,-0.9398 0.0855,-0.2563 0.2562,-0.5981 0.598,-1.0258 l 0.2567,-0.3418 4.0164,2.991 z M 42.7938,52.75 41.6824,54.2027 c -0.6836,0.9399 -1.1965,1.4528 -1.3672,1.6235 -0.2566,0.1711 -0.598,0.2566 -0.8547,0.2566 -0.2562,0 -0.598,-0.1711 -0.8546,-0.3422 -0.3418,-0.2562 -0.5129,-0.5125 -0.5985,-0.8547 -0.0851,-0.3414 0,-0.6832 0.1715,-1.0254 0.0852,-0.1707 0.427,-0.5976 1.0254,-1.3671 l 1.1109,-1.5383 z m -0.3422,11.8789 -10.768,-5.0422 -1.0254,2.1367 5.2133,7.7766 -7.2645,-3.418 -0.9402,2.0508 10.7684,5.0422 1.0253,-2.2219 -4.9566,-7.6062 7.0078,3.2476 z m -7.8625,21.2797 0.6839,-2.4781 -2.3074,-1.7946 1.3672,-4.5296 2.8203,-0.1708 0.6836,-2.4785 -12.6484,1.1961 -0.7688,2.3934 z m -3.3328,-5.5547 -3.7606,-2.7348 4.7004,-0.3418 z m 3.1621,8.2899 -9.8282,-1.0254 0.4274,-3.5043 -2.0512,-0.2567 -0.9402,9.4012 1.9656,0.2562 0.3422,-3.5039 9.8277,1.0258 z m -0.5129,7.3496 -11.8793,0.4269 0.0855,2.3934 11.8793,-0.3422 z m -5.9821,5.1276 c -1.1968,0.171 -2.1367,0.427 -2.9058,0.94 -0.5981,0.342 -1.111,0.769 -1.4528,1.282 -0.4277,0.513 -0.6839,1.111 -0.8546,1.71 -0.2563,0.768 -0.2563,1.623 -0.1711,2.563 0.2566,1.795 1.0257,3.077 2.2222,3.931 1.1961,0.941 2.82,1.197 4.7004,0.941 1.9656,-0.257 3.3328,-0.941 4.2727,-2.137 0.9402,-1.196 1.2824,-2.649 1.0258,-4.358 -0.2563,-1.795 -0.9399,-3.077 -2.2219,-4.017 -1.1969,-0.855 -2.7352,-1.197 -4.6149,-0.855 z m 0.2563,2.393 c 1.3672,-0.171 2.393,0 3.1617,0.513 0.7695,0.513 1.2824,1.282 1.3676,2.222 0.1711,0.94 -0.0852,1.794 -0.6836,2.478 -0.5981,0.684 -1.5383,1.111 -2.9055,1.368 -1.3676,0.171 -2.3933,0 -3.1625,-0.513 -0.7691,-0.513 -1.1961,-1.196 -1.3672,-2.222 -0.0855,-0.94 0.0856,-1.795 0.6836,-2.479 0.5985,-0.683 1.5387,-1.111 2.9059,-1.367 z m 7.8625,9.999 -11.2809,3.846 0.7688,2.222 9.059,2.051 -7.4348,2.564 0.6832,2.136 11.2813,-3.931 -0.8547,-2.222 -8.8879,-2.051 7.3496,-2.478 z m 9.7426,20.425 -1.2821,-2.221 -2.9058,0.427 -2.3926,-4.103 1.8801,-2.221 -1.2821,-2.137 -7.948,9.913 1.1969,2.223 z m -6.3243,-1.452 -4.6148,0.769 2.991,-3.589 z m 7.3497,2.393 -8.8879,7.776 1.5382,1.795 7.4352,-6.409 3.9313,4.529 1.4531,-1.367 z m 12.1355,11.793 -5.6402,8.033 -2.9059,-1.965 -1.1109,1.624 7.6914,5.384 1.1969,-1.624 -2.9059,-2.051 5.6402,-8.033 z m 14.7852,8.461 -2.393,-1.196 -2.1367,1.965 -4.1875,-2.136 0.3418,-2.906 -2.3075,-1.111 -1.282,12.648 2.3078,1.197 z m -6.1536,2.222 -3.4183,3.162 0.598,-4.7 z m 7.5211,-1.795 -3.0769,11.452 8.4609,2.308 0.5129,-1.966 -6.1535,-1.624 0.6836,-2.564 5.7262,1.539 0.5125,-1.966 -5.7258,-1.538 0.8547,-3.077 6.4097,1.709 0.5125,-1.965 z m 10.5969,2.906 -0.7691,11.879 2.3929,0.171 0.3422,-5.299 4.4438,5.641 3.2476,0.171 -4.1875,-4.872 5.2129,-6.922 -3.0765,-0.256 -3.675,5.384 -1.7946,-2.136 0.2563,-3.59 z m 13.6742,0.513 -1.3675,12.221 2.393,-0.342 0.769,-8.29 3.162,7.777 2.906,-0.341 1.025,-8.461 2.821,8.033 2.393,-0.342 -4.274,-11.452 -2.563,0.342 -1.283,9.144 -3.418,-8.546 z m 15.5535,3.589 c 0.427,1.196 0.94,2.051 1.624,2.649 0.427,0.513 1.026,0.855 1.624,1.197 0.598,0.256 1.196,0.427 1.794,0.427 0.855,0 1.71,-0.171 2.564,-0.512 1.624,-0.599 2.735,-1.624 3.333,-2.992 0.599,-1.453 0.599,-2.991 -0.171,-4.785 -0.683,-1.795 -1.709,-3.077 -3.076,-3.675 -1.368,-0.684 -2.82,-0.684 -4.444,0 -1.624,0.598 -2.821,1.623 -3.333,2.991 -0.599,1.367 -0.599,2.991 0.085,4.7 z m 2.393,-0.769 c -0.512,-1.282 -0.598,-2.308 -0.256,-3.247 0.342,-0.855 0.94,-1.454 1.795,-1.795 0.94,-0.342 1.794,-0.257 2.563,0.171 0.855,0.427 1.539,1.281 2.052,2.563 0.427,1.197 0.512,2.308 0.256,3.163 -0.342,0.854 -0.94,1.452 -1.88,1.794 -0.941,0.342 -1.795,0.257 -2.65,-0.085 -0.769,-0.427 -1.453,-1.282 -1.88,-2.564 z m 7.948,-9.743 6.324,10.085 1.966,-1.196 -0.086,-9.316 4.274,6.666 1.88,-1.111 -6.324,-10.084 -2.052,1.282 0.086,9.058 -4.102,-6.58 z m 11.708,-4.187 1.539,1.794 3.418,-2.906 -1.453,-1.709 z m 11.623,1.794 2.821,-3.333 c 0.683,-0.769 1.11,-1.367 1.367,-1.88 0.256,-0.598 0.427,-1.367 0.342,-2.051 -0.086,-0.683 -0.342,-1.453 -0.77,-2.136 -0.341,-0.684 -1.025,-1.368 -1.794,-2.137 -0.769,-0.598 -1.453,-1.111 -2.222,-1.367 -0.769,-0.342 -1.624,-0.513 -2.393,-0.428 -0.598,0.086 -1.196,0.257 -1.795,0.684 -0.513,0.256 -1.026,0.769 -1.624,1.453 l -2.905,3.333 z m 0,-3.162 -5.897,-5.127 1.111,-1.368 c 0.513,-0.513 0.855,-0.854 1.111,-1.025 0.257,-0.257 0.598,-0.342 0.941,-0.428 0.341,0 0.768,0.086 1.281,0.257 0.513,0.256 1.112,0.683 1.795,1.281 0.769,0.599 1.197,1.112 1.453,1.539 0.256,0.513 0.427,0.94 0.427,1.282 0,0.427 -0.085,0.855 -0.256,1.196 -0.171,0.342 -0.598,0.855 -1.282,1.624 z m 3.675,-10.426 c 1.025,0.598 1.966,0.94 2.906,1.025 0.683,0.086 1.282,0.086 1.965,-0.085 0.684,-0.171 1.197,-0.427 1.71,-0.855 0.598,-0.427 1.196,-1.11 1.709,-1.965 0.855,-1.453 1.025,-2.991 0.683,-4.444 -0.427,-1.453 -1.452,-2.649 -3.161,-3.59 -1.71,-1.025 -3.248,-1.282 -4.701,-0.94 -1.453,0.342 -2.649,1.282 -3.504,2.82 -0.855,1.539 -1.111,2.992 -0.684,4.445 0.428,1.452 1.453,2.649 3.077,3.589 z m 1.282,-2.051 c -1.197,-0.684 -1.88,-1.453 -2.136,-2.393 -0.343,-0.854 -0.257,-1.709 0.256,-2.564 0.427,-0.854 1.111,-1.367 2.051,-1.538 0.94,-0.171 1.965,0.085 3.162,0.769 1.197,0.684 1.88,1.453 2.222,2.307 0.257,0.855 0.171,1.709 -0.342,2.565 -0.513,0.854 -1.196,1.367 -2.051,1.537 -0.94,0.172 -1.966,0 -3.162,-0.683 z m 1.624,-17.007 11.452,3.247 2.307,-7.862 -1.965,-0.513 -1.624,5.47 -2.65,-0.769 1.368,-4.786 -1.966,-0.513 -1.368,4.786 -4.871,-1.367 z m 2.649,-9.828 11.879,1.025 0.769,-8.8023 -2.051,-0.1707 -0.513,6.409 -2.648,-0.256 0.512,-5.9823 -1.966,-0.1707 -0.598,5.982 -3.162,-0.256 0.598,-6.6658 -2.051,-0.1711 z m 12.734,-12.0503 -0.342,-4.3586 c -0.085,-1.0254 -0.256,-1.709 -0.428,-2.2219 -0.256,-0.6836 -0.683,-1.282 -1.281,-1.7094 -0.599,-0.4273 -1.197,-0.7687 -2.051,-0.9402 -0.769,-0.1707 -1.709,-0.2563 -2.821,-0.1707 -0.94,0.0855 -1.794,0.2566 -2.478,0.5984 -0.854,0.3418 -1.453,0.8547 -1.966,1.4528 -0.341,0.4269 -0.598,1.0254 -0.769,1.7949 -0.171,0.5125 -0.171,1.1961 -0.085,2.1363 l 0.342,4.4438 z m -2.222,-2.2219 -7.863,0.6836 -0.085,-1.7945 c -0.085,-0.5985 -0.085,-1.111 -0.085,-1.4532 0.085,-0.3418 0.256,-0.6836 0.426,-0.9398 0.257,-0.3418 0.599,-0.5984 1.112,-0.7691 0.513,-0.1711 1.196,-0.3418 2.136,-0.4278 0.94,-0.0847 1.624,-0.0847 2.137,0.086 0.513,0.0855 0.94,0.2562 1.196,0.5125 0.342,0.3418 0.513,0.6839 0.684,1.1113 0.085,0.3414 0.171,0.9398 0.257,1.9656 z m -10.939,-8.6316 11.452,-3.0766 -2.222,-8.5465 -1.966,0.5129 1.624,6.2391 -2.564,0.6832 -1.538,-5.811 -1.88,0.5125 1.538,5.8114 -3.162,0.7691 -1.71,-6.4094 -1.965,0.5129 z m -3.077,-10.768 10.683,-5.2137 -2.222,-4.5289 c -0.598,-1.1113 -1.111,-1.966 -1.539,-2.3933 -0.427,-0.3418 -0.939,-0.5981 -1.623,-0.6836 -0.599,-0.0856 -1.282,0 -1.881,0.3418 -0.854,0.4277 -1.367,0.9402 -1.623,1.7093 -0.342,0.6836 -0.342,1.5383 0,2.5641 -0.513,-0.3422 -0.94,-0.5984 -1.453,-0.684 -0.513,-0.1711 -1.282,-0.3418 -2.308,-0.4273 l -2.734,-0.2567 1.282,2.5641 3.076,0.4273 c 1.111,0.1711 1.795,0.2563 2.137,0.3422 0.256,0.0852 0.513,0.2563 0.684,0.427 0.256,0.1711 0.427,0.5129 0.683,1.0258 l 0.256,0.4273 -4.529,2.2219 z m 5.128,-5.1281 -0.855,-1.6235 c -0.427,-1.0258 -0.769,-1.7093 -0.769,-1.9656 -0.086,-0.3422 0,-0.5984 0.171,-0.8551 0.086,-0.2562 0.342,-0.4269 0.684,-0.598 0.341,-0.1707 0.684,-0.2563 1.025,-0.1707 0.257,0.0855 0.599,0.3418 0.769,0.5984 0.086,0.1703 0.428,0.6832 0.855,1.6234 l 0.769,1.6239 z m -17.092,-14.0157 1.538,2.0512 2.82,-0.684 2.735,3.8461 -1.538,2.3074 1.452,2.1368 6.923,-10.768 -1.539,-2.0512 z m 6.409,0.7692 4.529,-1.2821 -2.649,3.9313 z m -8.546,-2.6492 6.666,-7.1786 2.649,2.3926 1.368,-1.4527 -6.923,-6.4953 -1.367,1.5383 2.564,2.3929 -6.752,7.1789 z m -5.726,-4.786 7.008,-9.657 -1.966,-1.3676 -7.008,9.5719 z m -0.428,-7.7769 c 0.599,-1.111 0.941,-2.0512 1.026,-2.9914 0.086,-0.5981 0,-1.2817 -0.171,-1.9657 -0.171,-0.598 -0.427,-1.1961 -0.855,-1.6234 -0.512,-0.684 -1.111,-1.1965 -1.965,-1.7094 -1.538,-0.8547 -3.076,-1.0258 -4.529,-0.5984 -1.453,0.4277 -2.564,1.5383 -3.504,3.248 -0.94,1.6235 -1.282,3.2473 -0.855,4.7 0.428,1.4532 1.367,2.5641 2.906,3.4188 1.538,0.8547 2.991,1.0254 4.444,0.5984 1.452,-0.4277 2.649,-1.4531 3.503,-3.0769 z m -2.136,-1.2817 c -0.598,1.1106 -1.367,1.8797 -2.307,2.2215 -0.855,0.2567 -1.71,0.1711 -2.564,-0.2562 -0.769,-0.427 -1.368,-1.111 -1.538,-2.0508 -0.171,-0.9403 0,-1.9656 0.683,-3.1625 0.684,-1.1961 1.453,-1.9656 2.308,-2.2219 0.854,-0.3418 1.709,-0.2562 2.563,0.2563 0.855,0.5128 1.368,1.1964 1.624,2.0511 0.171,0.8547 -0.085,1.9657 -0.769,3.1625 z m -12.563,0.2563 3.504,-11.3664 -2.307,-0.684 -6.923,6.1535 2.308,-7.6062 -2.137,-0.684 -3.504,11.3668 2.308,0.7691 6.837,-6.068 -2.222,7.4352 2.136,0.684" /><g
       id="g60"
       transform="scale(0.1)"><path
         id="path62"
         style="fill:none;stroke:#231f20;stroke-width:2.56385;stroke-linecap:butt;stroke-linejoin:miter;stroke-miterlimit:2.6131;stroke-dasharray:none;stroke-opacity:1"
         d="m 821.059,361.699 -27.348,-116.222 -23.074,5.98 26.492,115.371 z m -46.149,11.965 -42.73,-111.098 -21.367,8.547 -17.09,91.446 -28.203,-74.356 -21.367,7.691 42.734,111.102 23.074,-8.547 16.235,-89.734 28.203,72.644 z m -133.32,59.824 -53.84,-82.894 29.059,-19.66 -10.258,-16.235 -79.481,51.277 11.114,17.09 29.054,-19.656 53.84,82.895 z m -62.387,40.168 -81.191,-87.168 -64.949,60.676 13.675,14.527 47.004,-43.586 17.946,18.801 -43.586,41.024 13.675,14.527 43.586,-41.024 22.219,23.93 -48.711,45.297 13.672,14.531 z m -82.043,76.063 -94.863,-71.789 -30.766,41.019 c -7.691,10.258 -12.816,17.949 -14.531,23.93 -1.707,5.98 -0.851,11.965 0.856,17.949 2.566,5.98 6.839,11.105 11.964,15.383 7.692,5.125 14.532,7.691 22.223,6.836 7.691,-0.856 15.383,-4.274 23.074,-11.961 -0.855,5.976 -0.855,11.105 0,16.234 1.707,5.125 3.418,11.965 7.692,22.223 l 9.402,25.637 17.945,-23.075 -10.257,-29.058 c -4.27,-10.254 -5.981,-17.09 -6.836,-20.512 0,-3.418 0,-5.98 0.855,-9.398 0.856,-2.563 2.563,-5.981 5.981,-10.258 l 2.566,-3.418 40.164,29.91 z M 427.938,527.5 416.824,542.027 c -6.836,9.399 -11.965,14.528 -13.672,16.235 -2.566,1.711 -5.98,2.566 -8.546,2.566 -2.563,0 -5.981,-1.711 -8.547,-3.422 -3.418,-2.562 -5.129,-5.125 -5.985,-8.547 -0.851,-3.414 0,-6.832 1.715,-10.254 0.852,-1.707 4.27,-5.976 10.254,-13.672 l 11.109,-15.382 z m -3.422,118.789 -107.68,-50.422 -10.254,21.367 52.133,77.766 -72.645,-34.18 -9.402,20.508 107.684,50.422 10.254,-22.219 -49.567,-76.062 70.078,32.476 z m -78.625,212.797 6.84,-24.782 -23.075,-17.945 13.672,-45.297 28.203,-1.707 6.836,-24.785 -126.484,11.961 -7.688,23.934 z m -33.328,-55.547 -37.606,-27.348 47.004,-3.418 z m 31.621,82.898 -98.282,-10.254 4.274,-35.043 -20.512,-2.566 -9.402,94.012 19.656,2.562 3.422,-35.039 98.277,10.258 z m -5.129,73.496 -118.793,4.27 0.855,23.933 118.793,-3.421 z m -59.821,51.277 c -11.968,1.71 -21.367,4.27 -29.058,9.4 -5.981,3.42 -11.11,7.69 -14.527,12.82 -4.278,5.13 -6.84,11.11 -8.547,17.1 -2.563,7.68 -2.563,16.23 -1.711,25.63 2.566,17.95 10.258,30.77 22.222,39.31 11.961,9.4 28.2,11.97 47.004,9.4 19.657,-2.56 33.328,-9.4 42.727,-21.36 9.402,-11.96 12.824,-26.49 10.258,-43.58 -2.563,-17.95 -9.399,-30.77 -22.219,-40.17 -11.969,-8.55 -27.352,-11.97 -46.149,-8.55 z m 2.563,23.93 c 13.672,-1.71 23.93,0 31.617,5.13 7.695,5.13 12.824,12.82 13.676,22.22 1.711,9.4 -0.852,17.94 -6.836,24.78 -5.98,6.84 -15.383,11.11 -29.055,13.68 -13.675,1.71 -23.933,0 -31.625,-5.13 -7.691,-5.13 -11.961,-11.96 -13.672,-22.22 -0.855,-9.4 0.856,-17.95 6.836,-24.79 5.985,-6.83 15.387,-11.11 29.059,-13.67 z m 78.625,99.99 -112.809,38.46 7.688,22.22 90.59,20.51 -74.348,25.64 6.832,21.36 112.813,-39.31 -8.547,-22.22 -88.879,-20.51 73.496,-24.78 z m 97.426,204.25 -12.821,-22.21 -29.058,4.27 -23.926,-41.03 18.801,-22.21 -12.82,-21.37 -79.481,99.13 11.969,22.23 z m -63.242,-14.52 -46.149,7.69 29.91,-35.89 z m 73.496,23.92 -88.879,77.77 15.383,17.95 74.351,-64.09 39.313,45.29 14.531,-13.67 z m 121.355,117.94 -56.402,80.33 -29.059,-19.65 -11.109,16.24 76.914,53.84 11.969,-16.24 -29.059,-20.51 56.402,-80.33 z m 147.852,84.61 -23.93,-11.96 -21.367,19.65 -41.875,-21.36 3.418,-29.06 -23.074,-11.11 -12.821,126.48 23.078,11.97 z m -61.535,22.22 -34.184,31.62 5.981,-47 z m 75.211,-17.95 -30.77,114.52 84.609,23.07 5.129,-19.65 -61.535,-16.24 6.836,-25.64 57.262,15.39 5.125,-19.66 -57.258,-15.38 8.547,-30.77 64.098,17.09 5.125,-19.65 z m 105.968,29.06 -7.691,118.79 23.93,1.71 3.422,-52.99 44.437,56.41 32.477,1.7 -41.875,-48.71 52.129,-69.22 -30.766,-2.57 -36.75,53.84 -17.945,-21.35 2.562,-35.9 z m 136.743,5.12 -13.676,122.22 23.93,-3.42 7.69,-82.9 31.62,77.77 29.06,-3.42 10.25,-84.6 28.21,80.33 23.93,-3.42 -42.74,-114.52 -25.63,3.42 -12.83,91.44 -34.18,-85.46 z m 155.534,35.9 c 4.27,11.96 9.4,20.51 16.24,26.49 4.27,5.13 10.26,8.55 16.24,11.97 5.98,2.56 11.96,4.27 17.94,4.27 8.55,0 17.1,-1.71 25.64,-5.13 16.24,-5.98 27.35,-16.23 33.33,-29.91 5.99,-14.53 5.99,-29.91 -1.71,-47.85 -6.83,-17.95 -17.09,-30.77 -30.76,-36.75 -13.68,-6.84 -28.2,-6.84 -44.44,0 -16.24,5.98 -28.21,16.23 -33.33,29.91 -5.99,13.67 -5.99,29.91 0.85,47 z m 23.93,-7.69 c -5.12,-12.82 -5.98,-23.08 -2.56,-32.47 3.42,-8.55 9.4,-14.54 17.95,-17.95 9.4,-3.42 17.94,-2.57 25.63,1.71 8.55,4.27 15.39,12.81 20.52,25.63 4.27,11.97 5.12,23.08 2.56,31.62 -3.42,8.55 -9.4,14.53 -18.8,17.95 -9.4,3.42 -17.95,2.57 -26.5,-0.86 -7.69,-4.26 -14.53,-12.81 -18.8,-25.63 z m 79.48,-97.43 63.24,100.85 19.66,-11.97 -0.86,-93.15 42.74,66.66 18.8,-11.11 -63.24,-100.84 -20.51,12.82 0.85,90.58 -41.02,-65.8 z m 117.08,-41.87 15.39,17.94 34.18,-29.06 -14.53,-17.09 z m 116.23,17.94 28.21,-33.33 c 6.83,-7.69 11.1,-13.67 13.67,-18.8 2.56,-5.98 4.27,-13.67 3.42,-20.51 -0.86,-6.83 -3.42,-14.53 -7.69,-21.37 -3.42,-6.83 -10.26,-13.67 -17.95,-21.36 -7.69,-5.98 -14.53,-11.11 -22.22,-13.67 -7.69,-3.42 -16.24,-5.13 -23.93,-4.28 -5.98,0.86 -11.96,2.57 -17.95,6.84 -5.13,2.56 -10.26,7.69 -16.24,14.53 l -29.05,33.33 z m 0,-31.62 -58.97,-51.27 11.11,-13.68 c 5.13,-5.13 8.55,-8.54 11.11,-10.25 2.57,-2.57 5.98,-3.42 9.41,-4.28 3.41,0 7.68,0.86 12.81,2.57 5.13,2.56 11.12,6.83 17.95,12.81 7.69,5.99 11.97,11.12 14.53,15.39 2.57,5.13 4.27,9.4 4.27,12.82 0,4.27 -0.85,8.55 -2.56,11.96 -1.71,3.42 -5.98,8.55 -12.82,16.24 z m 36.75,-104.26 c 10.25,5.98 19.66,9.4 29.06,10.25 6.83,0.86 12.82,0.86 19.65,-0.85 6.84,-1.71 11.97,-4.27 17.1,-8.55 5.98,-4.27 11.96,-11.1 17.09,-19.66 8.55,-14.52 10.25,-29.9 6.83,-44.43 -4.27,-14.53 -14.52,-26.49 -31.61,-35.9 -17.1,-10.25 -32.48,-12.82 -47.01,-9.4 -14.53,3.42 -26.49,12.82 -35.04,28.2 -8.55,15.39 -11.11,29.92 -6.84,44.45 4.28,14.52 14.54,26.49 30.77,35.89 z m 12.82,-20.51 c -11.96,-6.84 -18.8,-14.53 -21.36,-23.93 -3.43,-8.54 -2.57,-17.09 2.56,-25.64 4.27,-8.55 11.11,-13.67 20.51,-15.38 9.4,-1.71 19.65,0.85 31.62,7.69 11.97,6.84 18.8,14.53 22.22,23.07 2.57,8.55 1.71,17.09 -3.42,25.64 -5.13,8.55 -11.96,13.68 -20.51,15.38 -9.4,1.71 -19.66,0 -31.62,-6.83 z m 16.24,-170.07 114.52,32.47 23.07,-78.62 -19.65,-5.13 -16.24,54.7 -26.49,-7.69 13.67,-47.86 -19.66,-5.13 -13.67,47.86 -48.72,-13.67 z m 26.49,-98.28 118.79,10.25 7.69,-88.023 -20.51,-1.707 -5.13,64.09 -26.48,-2.56 5.12,-59.823 -19.66,-1.707 -5.98,59.82 -31.62,-2.56 5.98,-66.659 -20.51,-1.71 z m 127.34,-120.504 -3.42,-43.585 c -0.85,-10.254 -2.56,-17.09 -4.27,-22.219 -2.57,-6.836 -6.84,-12.82 -12.82,-17.094 -5.99,-4.273 -11.97,-7.687 -20.51,-9.402 -7.69,-1.707 -17.09,-2.563 -28.21,-1.707 -9.39,0.855 -17.94,2.566 -24.78,5.984 -8.54,3.418 -14.53,8.547 -19.66,14.527 -3.41,4.27 -5.98,10.254 -7.69,17.95 -1.71,5.125 -1.71,11.961 -0.85,21.363 l 3.42,44.437 z m -22.22,-22.218 -78.63,6.836 -0.85,-17.946 c -0.85,-5.984 -0.85,-11.109 -0.85,-14.531 0.85,-3.418 2.56,-6.836 4.27,-9.398 2.56,-3.418 5.98,-5.985 11.11,-7.692 5.13,-1.711 11.96,-3.418 21.36,-4.277 9.4,-0.848 16.24,-0.848 21.37,0.859 5.13,0.856 9.4,2.563 11.96,5.125 3.42,3.418 5.13,6.84 6.84,11.114 0.86,3.414 1.71,9.398 2.57,19.656 z m -109.39,-86.317 114.52,-30.765 -22.22,-85.465 -19.66,5.129 16.24,62.39 -25.64,6.832 -15.38,-58.109 -18.8,5.125 15.38,58.113 -31.62,7.692 -17.1,-64.094 -19.65,5.129 z m -30.77,-107.679 106.83,-52.137 -22.22,-45.289 c -5.98,-11.113 -11.11,-19.66 -15.39,-23.934 -4.27,-3.418 -9.39,-5.98 -16.23,-6.836 -5.98,-0.855 -12.82,0 -18.8,3.418 -8.55,4.278 -13.68,9.403 -16.24,17.094 -3.42,6.836 -3.42,15.383 0,25.641 -5.13,-3.422 -9.4,-5.985 -14.53,-6.84 -5.13,-1.711 -12.82,-3.418 -23.07,-4.274 l -27.35,-2.566 12.82,25.641 30.76,4.273 c 11.11,1.711 17.95,2.563 21.37,3.422 2.56,0.852 5.13,2.562 6.84,4.27 2.56,1.71 4.27,5.128 6.83,10.257 l 2.57,4.274 -45.3,22.219 z m 51.28,-51.282 -8.55,-16.234 c -4.27,-10.258 -7.69,-17.094 -7.69,-19.656 -0.85,-3.422 0,-5.985 1.71,-8.551 0.86,-2.562 3.42,-4.269 6.84,-5.98 3.42,-1.707 6.84,-2.563 10.25,-1.707 2.57,0.855 5.99,3.418 7.69,5.984 0.86,1.703 4.28,6.832 8.55,16.234 l 7.69,16.239 z m -170.92,-140.156 15.38,20.512 28.2,-6.84 27.35,38.461 -15.38,23.074 14.52,21.367 69.23,-107.679 -15.39,-20.512 z m 64.09,7.692 45.29,-12.821 -26.48,39.313 z m -85.46,-26.493 66.66,-71.785 26.49,23.926 13.68,-14.527 -69.22,-64.953 -13.68,15.382 25.64,23.93 -67.52,71.789 z m -57.26,-47.859 70.08,-96.57 -19.66,-13.676 -70.08,95.719 z m -4.28,-77.769 c 5.99,-11.11 9.41,-20.512 10.26,-29.914 0.86,-5.981 0,-12.817 -1.71,-19.657 -1.71,-5.98 -4.27,-11.961 -8.55,-16.234 -5.12,-6.84 -11.1,-11.965 -19.65,-17.094 -15.38,-8.547 -30.76,-10.258 -45.29,-5.984 -14.53,4.277 -25.64,15.383 -35.04,32.48 -9.4,16.235 -12.82,32.473 -8.55,47 4.28,14.531 13.68,25.641 29.06,34.188 15.38,8.547 29.91,10.254 44.44,5.984 14.52,-4.277 26.49,-14.531 35.03,-30.769 z m -21.35,-12.817 c -5.99,11.106 -13.68,18.797 -23.08,22.215 -8.55,2.566 -17.1,1.711 -25.64,-2.562 -7.69,-4.27 -13.68,-11.11 -15.38,-20.508 -1.71,-9.403 0,-19.657 6.83,-31.625 6.84,-11.961 14.53,-19.657 23.08,-22.219 8.54,-3.418 17.09,-2.563 25.63,2.562 8.56,5.129 13.68,11.965 16.24,20.512 1.71,8.547 -0.85,19.656 -7.68,31.625 z m -125.64,2.563 35.04,-113.664 -23.07,-6.84 -69.23,61.535 23.08,-76.063 -21.37,-6.839 -35.04,113.668 23.08,7.691 68.37,-60.68 -22.22,74.352 z" /></g><path
       id="path64"
       style="fill:#231f20;fill-opacity:1;fill-rule:evenodd;stroke:none;stroke-width:0.1"
       d="m 130.819,51.2969 -0.171,0.0851 c -1.966,1.4532 -3.931,2.7352 -5.897,3.9317 -0.683,-1.111 -1.453,-2.2223 -2.222,-3.1621 -1.965,-2.393 -4.358,-4.3586 -7.093,-5.7262 1.282,-0.5981 2.65,-1.282 3.931,-1.9652 l -0.94,-1.795 c -7.264,4.0164 -14.272,5.9825 -21.1946,5.9825 -6.9222,-0.0856 -13.8445,-2.2223 -21.1086,-6.4954 l -1.0254,1.7094 c 0.9399,0.5985 1.8797,1.111 2.9055,1.6238 -0.7695,0.4274 -1.4527,0.9399 -2.1367,1.4528 -1.1965,0.9402 -2.3074,1.8801 -3.2477,2.9058 -1.6234,1.709 -2.991,3.5891 -4.0164,5.5547 -2.1367,-1.1961 -4.1879,-2.5636 -6.239,-4.1019 l -2.0512,0.9402 0.9402,0.5981 c 2.1367,1.6238 4.2735,3.0765 6.4953,4.4441 -1.6238,3.675 -2.3074,7.777 -2.2218,12.05 l 2.0507,-0.0855 c -0.1707,-3.8458 0.4274,-7.6063 1.8801,-11.0247 3.3336,1.8801 6.7516,3.4184 10.1703,4.5297 l -0.0855,0.1711 c -0.0856,1.111 -0.1711,2.1364 -0.1711,3.1621 -0.0856,1.0254 -0.0856,2.1364 -0.0856,3.1618 v 0.0855 h 2.0512 v -0.1707 c -0.0851,-0.9402 -0.0851,-1.966 0,-2.9914 0,-0.9399 0.0856,-1.8801 0.1711,-2.8203 4.786,1.4531 9.4863,2.1367 14.2719,2.2222 v 3.7602 h 1.9656 v -3.7602 c 4.7857,-0.1711 9.4867,-0.9402 14.2727,-2.3929 0.085,1.0254 0.17,2.0511 0.17,2.991 0.086,1.0254 0.086,2.0512 0.086,2.9914 v 0.1707 h 1.965 v -0.0855 c 0,-1.0254 0,-2.1364 -0.085,-3.1618 0,-1.0257 -0.086,-2.0511 -0.171,-3.1621 l -0.085,-0.3422 c 2.82,-0.9402 5.555,-2.1363 8.29,-3.5894 0.598,-0.3418 1.196,-0.5981 1.794,-0.9399 1.197,2.3075 2.052,4.8715 2.564,7.5207 0.769,4.5293 0.427,9.2297 -1.282,13.5028 -1.282,3.4187 -3.418,6.4953 -6.495,9.0594 l 1.282,1.4527 c 3.333,-2.7352 5.64,-6.068 7.093,-9.743 1.795,-4.7004 2.222,-9.7426 1.368,-14.6137 -0.513,-2.9058 -1.453,-5.6406 -2.735,-8.2043 2.051,-1.1968 4.017,-2.564 6.068,-4.0167 l 0.085,-0.0856 z m -7.777,4.9566 c -0.598,0.3422 -1.196,0.6836 -1.795,0.9399 -2.478,1.3679 -5.042,2.4789 -7.606,3.3336 -0.598,-4.0168 -1.623,-8.2043 -3.247,-12.1356 0.854,-0.2566 1.709,-0.5984 2.564,-0.9402 3.162,1.2816 5.811,3.3328 8.033,5.982 0.769,0.8547 1.453,1.7949 2.051,2.8203 z m -11.281,4.957 h -0.085 c -4.615,1.4528 -9.23,2.2219 -13.9307,2.3926 V 50.6133 c 3.5897,0 7.1787,-0.5985 10.7687,-1.6242 1.624,4.0172 2.649,8.1195 3.247,12.2214 z m -15.9813,2.3926 c -4.7004,-0.0851 -9.4004,-0.8543 -14.0156,-2.2218 0.5984,-4.2727 1.7093,-8.7168 3.5039,-12.8192 3.5039,1.1965 7.0078,1.7949 10.5117,1.9656 z M 79.884,60.7832 c -3.2473,-1.1109 -6.4098,-2.5641 -9.5719,-4.3586 0.9402,-1.8801 2.2223,-3.5894 3.7606,-5.2129 0.8543,-0.9402 1.88,-1.7949 2.991,-2.6496 0.9402,-0.7691 1.9656,-1.4527 2.9914,-2.0512 1.1109,0.5129 2.2219,0.9403 3.3328,1.3676 -1.7949,4.1875 -2.9055,8.5461 -3.5039,12.9047" /><path
       id="path66"
       style="fill:#231f20;fill-opacity:1;fill-rule:evenodd;stroke:none;stroke-width:0.1"
       d="m 62.5355,142.655 0.3415,-0.256 c 1.966,-1.367 3.9312,-2.735 5.8968,-3.931 0.6836,1.196 1.4532,2.222 2.3075,3.162 1.966,2.393 4.3585,4.359 7.0082,5.726 -1.2821,0.598 -2.5641,1.282 -3.9313,1.965 l 1.0254,1.795 c 7.2644,-4.016 14.1867,-5.982 21.109,-5.982 6.8374,0.086 13.5884,2.136 20.7674,6.239 0.085,0.085 0.085,0 0.256,0.085 l 1.197,-1.538 c -1.026,-0.599 -1.966,-1.111 -2.906,-1.624 0.684,-0.427 1.453,-0.94 2.051,-1.453 1.282,-0.94 2.307,-1.88 3.333,-2.905 1.624,-1.709 2.906,-3.59 4.017,-5.556 2.051,1.197 4.102,2.564 6.153,4.103 l 1.196,-1.539 c -2.136,-1.623 -4.358,-3.076 -6.495,-4.358 1.624,-3.761 2.308,-7.863 2.137,-12.136 l -1.965,0.086 c 0.085,3.845 -0.513,7.606 -1.881,11.025 -3.418,-1.881 -6.751,-3.419 -10.17,-4.53 v -0.171 c 0.085,-1.026 0.171,-2.137 0.256,-3.162 0,-1.026 0,-2.052 0,-3.162 v -0.086 h -1.965 v 0.171 c 0,0.94 0,1.966 -0.086,2.991 0,0.94 -0.085,1.88 -0.17,2.82 -4.701,-1.452 -9.487,-2.136 -14.2727,-2.221 v -3.761 h -1.9656 v 3.761 c -4.7004,0.17 -9.4859,0.94 -14.1867,2.392 -0.0852,-1.025 -0.1707,-2.051 -0.2563,-2.991 0,-1.025 0,-2.051 0,-2.991 v -0.171 h -2.0512 v 0.086 c 0,1.11 0,2.136 0.0856,3.162 0.0855,1.025 0.0855,2.136 0.2566,3.162 v 0.342 c -2.7347,1.025 -5.4695,2.136 -8.2047,3.589 -0.598,0.342 -1.2816,0.684 -1.88,1.026 -1.1961,-2.393 -2.0508,-4.957 -2.4785,-7.606 -0.8547,-4.444 -0.5125,-9.231 1.1964,-13.503 0.9403,-2.393 2.2223,-4.53 4.0172,-6.581 0.1707,-0.513 -0.5129,-1.453 -1.5383,-1.282 -1.8804,2.137 -3.3332,4.615 -4.2734,7.093 -1.8797,4.701 -2.2219,9.829 -1.3672,14.614 0.5125,2.906 1.4528,5.641 2.7348,8.205 -2.0512,1.196 -4.1024,2.564 -6.1531,4.102 l -0.8551,0.684 0.3422,0.769 z m 7.9477,-5.127 c 0.5981,-0.342 1.1965,-0.684 1.7949,-0.94 2.5637,-1.368 5.0418,-2.393 7.6059,-3.333 0.5984,4.102 1.709,8.204 3.2473,12.135 -0.8543,0.256 -1.709,0.599 -2.5637,0.94 -3.0766,-1.282 -5.8113,-3.333 -7.9481,-5.896 -0.7687,-0.941 -1.4527,-1.881 -2.1363,-2.906 z m 11.3664,-4.957 v 0 c 4.6149,-1.453 9.3156,-2.222 13.9301,-2.307 v 12.904 c -3.5891,0 -7.093,0.599 -10.6824,1.624 -1.6239,-3.931 -2.7348,-8.119 -3.2477,-12.221 z m 15.8957,-2.393 c 4.7007,0.086 9.4007,0.855 14.0157,2.222 -0.598,4.359 -1.709,8.717 -3.418,12.82 -3.589,-1.197 -7.094,-1.795 -10.5977,-1.966 z m 15.9817,2.906 c 3.162,1.025 6.41,2.479 9.571,4.273 -1.025,1.88 -2.221,3.589 -3.76,5.213 -0.94,0.94 -1.965,1.88 -3.077,2.735 -0.94,0.684 -1.88,1.367 -2.99,1.965 -1.112,-0.513 -2.223,-0.94 -3.248,-1.367 1.709,-4.187 2.906,-8.546 3.504,-12.819" /><path
       id="path68"
       style="fill:#fff200;fill-opacity:1;fill-rule:evenodd;stroke:none;stroke-width:0.1"
       d="m 56.8949,98.7281 h -5.9824 v -9.5718 h 5.9824 v -3.4184 h -7.6918 -1.7093 v 1.7094 12.9907 1.709 h 1.7093 7.6918 z m 4.786,-0.0851 h 2.0507 v 8.631 h 3.4188 V 85.4816 h -3.4188 v 9.7426 h -2.0507 v -9.7426 h -3.4188 v 21.7924 h 3.4188 z m -14.5286,8.375 h 9.4864 V 103.6 h -9.4864 v 3.418" /><path
       id="path70"
       style="fill:#fff200;fill-opacity:1;fill-rule:evenodd;stroke:none;stroke-width:0.1"
       d="m 144.75,85.4816 h -18.802 v 5.0422 h 3.418 V 88.9 h 15.384 z m -18.802,6.3243 h 3.504 l 3.76,5.6402 h 4.701 v 3.4179 h -2.479 l 2.051,3.077 h 0.428 v 3.419 h -11.965 v -3.419 h 7.948 l -1.966,-3.077 h -4.529 v -3.4179 h 2.222 z m 18.374,15.4681 V 90.8656 h -3.333 v 2.393 h -5.213 v 3.4184 h 5.213 v 10.597 h 3.333" /><path
       id="path72"
       style="fill:#231f20;fill-opacity:1;fill-rule:evenodd;stroke:none;stroke-width:0.1"
       d="m 97.1473,31.8117 c 2.3078,0 4.1017,-1.7949 4.1017,-4.1023 0,-2.2219 -1.7939,-4.1024 -4.1017,-4.1024 -2.2219,0 -4.102,1.8805 -4.102,4.1024 0,2.3074 1.8801,4.1023 4.102,4.1023" /><g
       id="g74"
       transform="scale(0.1)"><path
         id="path76"
         style="fill:none;stroke:#231f20;stroke-width:2.56385;stroke-linecap:butt;stroke-linejoin:miter;stroke-miterlimit:2.6131;stroke-dasharray:none;stroke-opacity:1"
         d="m 971.473,318.117 c 23.078,0 41.017,-17.949 41.017,-41.023 0,-22.219 -17.939,-41.024 -41.017,-41.024 -22.219,0 -41.02,18.805 -41.02,41.024 0,23.074 18.801,41.023 41.02,41.023 z" /></g><path
       id="path78"
       style="fill:#fff200;fill-opacity:1;fill-rule:evenodd;stroke:none;stroke-width:0.1"
       d="m 73.4742,105.821 c 0.4274,1.624 4.786,1.709 6.5809,2.052 3.589,4.016 6.3242,4.273 11.4519,3.076 3.0766,3.504 9.998,2.906 11.964,-0.342 6.495,1.966 11.11,-4.102 11.196,-2.478 -2.735,10.768 -10.512,5.726 -12.221,7.521 -0.428,3.845 -12.221,4.614 -12.7339,-0.684 -3.1621,-0.94 -6.068,2.478 -9.657,-3.333 -6.068,0.342 -6.4098,-0.855 -8.461,-2.906 -3.4183,-1.623 1.8801,-7.264 2.5641,-17.5196 0.0856,-2.5636 1.709,-2.2219 1.9656,-4.4441 0.2563,-2.1363 5.6403,-1.4528 5.7258,-0.0852 0.1711,3.5039 -0.3418,10.9391 -0.3418,14.7849 -0.8547,2.991 -2.2223,1.795 -2.5637,4.7 -1.7097,0.855 -3.5894,-0.513 -5.4699,-0.342" /><g
       id="g80"
       transform="scale(0.1)"><path
         id="path82"
         style="fill:none;stroke:#00adef;stroke-width:2.56385;stroke-linecap:butt;stroke-linejoin:miter;stroke-miterlimit:2.6131;stroke-dasharray:none;stroke-opacity:1"
         d="m 734.742,1058.21 c 4.274,16.24 47.86,17.09 65.809,20.52 35.891,40.16 63.242,42.73 114.52,30.76 30.765,35.04 99.979,29.06 119.649,-3.42 64.94,19.66 111.09,-41.02 111.95,-24.78 -27.35,107.68 -105.12,57.26 -122.21,75.21 -4.28,38.45 -122.21,46.14 -127.339,-6.84 -31.621,-9.4 -60.679,24.78 -96.57,-33.33 -60.68,3.42 -64.098,-8.55 -84.609,-29.06 -34.184,-16.24 18.8,-72.64 25.64,-175.196 0.856,-25.637 17.09,-22.219 19.657,-44.441 2.562,-21.364 56.402,-14.528 57.257,-0.852 1.711,35.039 -3.418,109.391 -3.418,147.849 -8.547,29.91 -22.222,17.95 -25.636,47 -17.098,8.55 -35.895,-5.13 -54.7,-3.42 z" /></g><path
       id="path84"
       style="fill:#fff200;fill-opacity:1;fill-rule:evenodd;stroke:none;stroke-width:0.1"
       d="m 116.034,95.6516 c 1.539,0.7687 3.333,-1.2821 3.504,-2.9055 1.367,-13.5887 -2.136,-8.0336 -5.726,-17.1781 -1.367,-2.991 -6.41,-3.5039 -10.682,-0.0852 -2.308,1.3672 -4.3589,0.5125 -6.7519,0.5981 -1.3672,2.0511 -0.8547,5.7257 0.4274,6.2386 6.9225,1.5379 5.4695,-0.9402 10.9385,-1.1109 2.821,-0.684 6.239,5.2984 8.29,14.443" /><g
       id="g86"
       transform="scale(0.1)"><path
         id="path88"
         style="fill:none;stroke:#00adef;stroke-width:2.56385;stroke-linecap:butt;stroke-linejoin:miter;stroke-miterlimit:2.6131;stroke-dasharray:none;stroke-opacity:1"
         d="m 1160.34,956.515 c 15.39,7.688 33.33,-12.82 35.04,-29.054 13.68,-135.887 -21.36,-80.336 -57.26,-171.781 -13.67,-29.911 -64.1,-35.04 -106.82,-0.852 -23.08,13.672 -43.589,5.125 -67.518,5.98 -13.672,20.512 -8.547,57.258 4.273,62.387 69.225,15.379 54.695,-9.402 109.385,-11.109 28.21,-6.84 62.39,52.984 82.9,144.429 z" /></g></g></svg>
